<?xml version="1.0" standalone="no"?>
<!DOCTYPE svg PUBLIC "-//W3C//DTD SVG 20010904//EN"
 "http://www.w3.org/TR/2001/REC-SVG-20010904/DTD/svg10.dtd">
<svg version="1.0" xmlns="http://www.w3.org/2000/svg"
 width="2160.000000pt" height="2160.000000pt" viewBox="0 0 2160.000000 2160.000000"
 preserveAspectRatio="xMidYMid meet">
<metadata>
Created by potrace 1.14, written by Peter Selinger 2001-2017
</metadata>
<g transform="translate(0.000000,2160.000000) scale(0.100000,-0.100000)"
fill="#000000" stroke="none">
<path d="M8624 14960 c5 -23 4 -24 -9 -7 -13 18 -13 18 -18 0 -4 -17 -5 -17
-6 1 -1 13 -6 16 -18 11 -27 -11 -73 -14 -67 -4 3 5 0 9 -5 9 -6 0 -11 -5 -11
-11 0 -8 -6 -7 -17 2 -11 10 -14 10 -9 2 4 -7 2 -13 -3 -13 -6 0 -11 5 -11 10
0 6 -5 10 -11 10 -5 0 -8 -4 -5 -8 3 -5 -1 -9 -9 -9 -8 0 -12 4 -9 8 2 4 -5 7
-16 6 -11 -1 -20 -5 -20 -10 0 -4 -5 -5 -11 -1 -7 4 -7 -1 1 -16 7 -12 7 -20
2 -16 -6 3 -12 3 -15 -1 -2 -5 -2 -1 0 7 2 11 0 11 -11 -2 -15 -20 -31 -24
-20 -5 5 7 1 7 -10 -2 -15 -13 -19 -13 -26 0 -8 12 -11 12 -22 0 -11 -11 -11
-13 1 -6 10 6 12 4 6 -5 -6 -10 -11 -9 -21 4 -8 12 -14 14 -19 6 -6 -9 -10 -9
-16 1 -7 11 -9 10 -9 -3 0 -10 -7 -18 -15 -18 -9 0 -12 -6 -9 -15 4 -8 1 -15
-5 -15 -6 0 -11 5 -11 10 0 6 -5 10 -11 10 -5 0 -7 -4 -4 -10 3 -5 -1 -10 -9
-10 -9 0 -16 5 -16 11 0 5 -5 7 -10 4 -6 -4 -8 -11 -5 -16 10 -15 -2 -10 -21
9 -17 16 -18 16 -11 -2 5 -13 3 -17 -7 -13 -16 6 -43 -19 -32 -30 3 -3 6 -1 6
5 0 7 5 12 12 12 9 0 9 -3 0 -12 -13 -13 -54 -19 -46 -6 3 4 -2 8 -11 8 -9 0
-14 -4 -11 -9 3 -5 -1 -14 -9 -21 -8 -7 -13 -15 -11 -19 9 -13 -41 -6 -59 9
-11 8 -16 10 -12 3 4 -6 3 -15 -3 -18 -8 -5 -8 -11 0 -20 10 -12 8 -13 -10
-10 -17 3 -20 1 -15 -12 5 -14 2 -13 -16 3 -12 10 -19 14 -16 8 4 -7 0 -15 -9
-18 -8 -3 -13 -2 -10 2 2 4 -5 9 -17 9 -12 1 -17 -1 -11 -5 6 -4 11 -15 11
-24 0 -15 -3 -15 -16 -5 -10 8 -13 9 -8 0 4 -6 3 -14 -3 -18 -5 -3 -10 -1 -10
4 0 6 -5 11 -11 11 -5 0 -8 -4 -4 -9 3 -6 -6 -8 -21 -5 -24 4 -26 3 -14 -11
10 -12 10 -15 -4 -15 -10 0 -14 -4 -11 -10 3 -5 -6 -12 -20 -16 -14 -3 -25
-10 -25 -16 0 -5 6 -6 13 -2 9 5 9 3 -1 -7 -11 -12 -14 -12 -21 0 -7 11 -10
11 -15 0 -5 -11 -7 -11 -12 -1 -8 17 -24 5 -17 -13 4 -11 1 -13 -11 -9 -9 3
-13 11 -9 17 4 6 1 7 -6 2 -9 -5 -10 -10 -2 -18 23 -23 4 -32 -26 -14 -9 5
-11 3 -7 -6 7 -19 -12 -32 -22 -16 -5 8 -3 9 7 4 12 -7 12 -6 0 6 -10 11 -15
11 -18 1 -3 -6 -9 -10 -14 -6 -5 3 -9 -2 -9 -11 0 -9 5 -13 10 -10 6 3 10 4
10 1 0 -3 -10 -10 -21 -17 -17 -9 -20 -8 -14 3 3 7 -1 4 -9 -6 -9 -11 -16 -15
-16 -9 0 6 -6 13 -14 16 -10 4 -12 0 -9 -14 3 -11 0 -19 -6 -19 -7 0 -9 5 -5
12 4 7 3 8 -5 4 -9 -6 -9 -11 1 -24 10 -12 10 -14 1 -8 -8 4 -13 2 -13 -5 0
-7 -7 -4 -16 7 -8 10 -13 14 -10 8 3 -7 -1 -17 -10 -24 -8 -7 -12 -20 -9 -28
4 -12 3 -13 -10 -2 -12 10 -15 10 -15 -1 0 -11 -2 -11 -10 1 -6 9 -10 11 -10
3 0 -8 -7 -10 -17 -6 -15 6 -16 4 -5 -9 10 -13 10 -18 1 -24 -8 -4 -9 -3 -5 4
4 7 2 12 -3 12 -6 0 -11 -8 -11 -17 0 -15 -2 -16 -10 -3 -9 13 -10 13 -10 0 0
-13 -1 -13 -10 0 -6 10 -10 11 -10 3 0 -7 -5 -13 -11 -13 -5 0 -7 6 -3 13 5 9
3 9 -7 -1 -8 -7 -14 -18 -14 -25 0 -7 -4 -12 -10 -12 -19 0 -36 -17 -31 -30 3
-8 -2 -19 -10 -26 -8 -7 -14 -8 -13 -3 4 21 -2 28 -11 14 -9 -13 -11 -13 -20
0 -8 13 -10 12 -10 -4 0 -14 -3 -16 -13 -8 -10 9 -13 5 -11 -19 2 -22 -1 -27
-10 -20 -7 6 -17 6 -26 1 -8 -5 -21 -5 -32 1 -14 7 -16 6 -12 -6 12 -31 -2
-44 -40 -35 -25 5 -35 4 -33 -4 1 -6 -7 -10 -18 -8 -20 3 -20 3 -1 -11 18 -13
18 -14 -12 -25 -16 -6 -34 -7 -38 -4 -3 4 -1 -3 5 -15 10 -20 9 -22 -6 -16
-16 6 -17 5 -3 -13 14 -18 14 -18 -5 -3 -11 9 -27 20 -35 24 -13 8 -13 7 -1
-9 13 -16 13 -18 0 -16 -7 1 -21 2 -29 1 -13 -1 -13 -2 0 -11 13 -8 12 -10 -3
-10 -12 0 -16 -4 -11 -12 4 -7 4 -10 -1 -6 -4 4 -14 3 -22 -4 -11 -8 -12 -7
-7 6 3 9 1 16 -5 16 -7 0 -16 -10 -21 -22 -5 -13 -9 -19 -9 -15 -1 5 -8 1 -17
-8 -13 -13 -19 -13 -32 -3 -14 11 -15 10 -9 -6 6 -16 5 -17 -8 -6 -11 9 -15 9
-15 1 0 -7 -4 -9 -10 -6 -5 3 -10 -1 -10 -10 0 -10 5 -13 12 -9 6 4 8 3 4 -4
-3 -6 -15 -9 -26 -7 -11 2 -23 -1 -26 -7 -5 -7 -2 -8 6 -3 8 5 11 3 8 -6 -7
-22 -50 -40 -65 -27 -9 7 -13 7 -13 -1 0 -6 -5 -11 -10 -11 -6 0 -22 -12 -36
-27 -14 -16 -23 -23 -20 -17 3 7 -1 15 -10 18 -8 3 -12 2 -9 -4 3 -6 -1 -10
-9 -10 -8 0 -18 -5 -22 -12 -4 -6 -3 -8 3 -5 5 3 10 0 10 -7 0 -7 -7 -13 -16
-12 -9 0 -15 -5 -13 -12 1 -8 -2 -11 -8 -7 -6 3 -8 10 -6 14 3 4 -1 8 -9 8 -8
0 -13 -3 -10 -5 9 -9 -38 -52 -56 -52 -10 0 -23 -9 -29 -20 -6 -11 -15 -20
-21 -20 -6 0 -8 4 -5 9 5 8 -15 8 -34 1 -3 -1 -9 -2 -13 -1 -5 1 -6 -3 -2 -9
5 -8 12 -7 23 2 15 12 16 11 4 -4 -8 -10 -19 -16 -25 -15 -7 1 -12 -5 -11 -13
1 -12 -8 -14 -39 -11 -33 3 -39 1 -34 -12 4 -12 2 -14 -11 -10 -14 6 -15 4 -4
-9 10 -13 9 -15 -13 -10 -15 2 -25 0 -25 -7 0 -7 6 -9 13 -6 6 4 3 0 -7 -9
-10 -8 -23 -13 -27 -10 -5 3 -6 -2 -3 -10 4 -11 0 -14 -15 -11 -12 2 -26 7
-31 10 -6 3 -10 -3 -10 -15 0 -12 -4 -19 -9 -16 -5 3 -12 -2 -15 -11 -5 -12
-9 -14 -18 -5 -7 7 -19 12 -27 12 -14 0 -14 -1 -1 -10 12 -8 11 -10 -7 -10
-13 0 -23 -5 -23 -11 0 -5 5 -7 12 -3 7 5 8 3 3 -5 -4 -7 -16 -11 -26 -8 -11
3 -17 1 -13 -4 3 -5 1 -9 -5 -9 -5 0 -11 5 -13 12 -3 8 -9 8 -24 -1 -14 -9
-15 -11 -2 -7 12 3 15 1 12 -9 -3 -8 -12 -11 -20 -8 -10 4 -12 0 -7 -13 5 -14
3 -16 -11 -11 -15 6 -17 3 -13 -13 3 -11 1 -17 -4 -14 -6 3 -17 0 -25 -7 -13
-10 -17 -10 -24 1 -7 11 -12 11 -23 2 -7 -7 -18 -8 -22 -4 -5 4 -5 2 -1 -5 3
-6 1 -15 -5 -18 -5 -4 -8 -14 -4 -24 5 -12 4 -13 -6 -4 -10 10 -15 9 -26 -5
-9 -11 -12 -12 -11 -3 2 7 -4 16 -12 19 -8 2 -12 1 -8 -3 4 -4 -1 -15 -10 -24
-10 -9 -11 -11 -3 -6 12 9 12 7 0 -12 -9 -15 -16 -18 -20 -11 -12 19 -38 17
-52 -3 -8 -10 -17 -17 -20 -14 -4 3 -3 -1 3 -7 5 -7 10 -17 10 -23 0 -5 -4 -4
-8 3 -10 16 -45 4 -38 -13 2 -6 0 -18 -6 -26 -8 -11 -9 -10 -4 4 3 9 1 17 -3
17 -5 0 -12 -8 -16 -17 -7 -17 -8 -16 -15 2 -5 11 -9 14 -9 7 -1 -7 -5 -11
-10 -8 -5 3 -14 -1 -21 -9 -11 -13 -10 -14 6 -9 16 5 16 4 4 -5 -8 -6 -23 -11
-33 -11 -10 0 -16 -4 -13 -8 3 -5 -1 -9 -9 -9 -8 0 -12 4 -10 8 3 4 -2 6 -12
5 -9 -2 -17 -13 -18 -25 -2 -29 -20 -47 -30 -30 -6 8 -4 10 5 4 9 -5 11 -4 6
4 -6 9 -11 9 -22 0 -8 -6 -14 -8 -14 -4 0 4 -6 2 -13 -4 -8 -6 -16 -9 -19 -6
-2 3 -5 -2 -5 -10 0 -10 4 -12 12 -5 6 5 16 5 25 -1 12 -8 11 -9 -5 -7 -12 2
-19 -2 -17 -10 2 -9 -2 -11 -10 -6 -7 5 -22 10 -33 12 -20 3 -20 3 0 -12 20
-15 20 -15 -2 -10 -16 5 -21 2 -20 -13 2 -15 -5 -18 -47 -16 -28 1 -44 -2 -38
-6 7 -4 10 -15 6 -24 -5 -13 -10 -14 -25 -6 -11 5 -19 6 -18 2 4 -22 -3 -25
-17 -7 -8 10 -13 13 -9 7 5 -11 -6 -17 -26 -15 -4 1 -4 -8 -1 -20 3 -14 1 -19
-6 -14 -7 4 -12 2 -12 -4 0 -6 -4 -9 -9 -6 -4 3 -7 -5 -6 -19 2 -17 -1 -22
-12 -18 -12 5 -12 7 -1 14 7 5 9 9 4 9 -5 0 -18 -8 -29 -17 -11 -10 -17 -13
-14 -6 8 13 -18 12 -30 -2 -4 -4 -1 -5 7 -1 8 4 4 -1 -9 -12 -13 -10 -21 -24
-17 -31 5 -7 1 -9 -8 -5 -9 3 -13 11 -10 16 4 6 -3 5 -15 -1 -12 -7 -25 -10
-29 -7 -4 3 -14 -5 -22 -17 -12 -19 -11 -20 2 -10 12 10 15 10 15 -2 0 -7 -3
-14 -6 -13 -3 0 -8 -1 -11 -2 -15 -6 -68 -5 -64 1 2 4 -1 11 -8 15 -7 4 -10 4
-7 0 11 -12 -6 -61 -22 -61 -8 -1 -13 -6 -12 -13 2 -7 -4 -12 -12 -12 -8 0
-15 -3 -15 -7 0 -5 -11 -9 -25 -9 -15 -1 -22 2 -18 9 3 6 1 7 -5 3 -7 -4 -12
-14 -12 -22 0 -8 -5 -14 -11 -14 -5 0 -8 -4 -4 -9 3 -5 0 -13 -6 -17 -8 -4 -9
-3 -5 4 10 16 -16 15 -33 0 -10 -9 -12 -9 -7 -1 3 6 1 15 -5 19 -8 4 -9 3 -5
-4 4 -7 3 -12 -3 -12 -6 0 -7 -8 -4 -17 5 -13 2 -15 -11 -10 -13 5 -17 3 -13
-7 4 -10 -1 -13 -19 -11 -13 1 -24 -2 -24 -8 0 -5 -9 -7 -21 -4 -17 5 -18 3
-7 -11 11 -13 11 -15 -4 -9 -13 4 -18 1 -18 -10 0 -11 -3 -13 -13 -5 -10 9
-13 5 -11 -18 1 -17 -2 -27 -7 -24 -5 3 -6 11 -2 17 5 9 3 9 -8 0 -12 -10 -18
-10 -29 0 -10 10 -12 9 -7 -6 6 -15 4 -16 -14 -6 -12 6 -19 7 -16 2 3 -4 -1
-17 -9 -28 -10 -14 -14 -15 -15 -4 0 8 -4 6 -9 -6 -6 -13 -9 -15 -9 -5 -1 10
-6 8 -16 -7 -10 -14 -23 -20 -36 -18 -16 3 -18 1 -10 -9 9 -10 8 -15 -4 -20
-9 -3 -13 -2 -10 4 3 5 -3 8 -14 7 -11 0 -19 -6 -18 -11 1 -6 -4 -11 -10 -12
-7 -1 -16 -3 -20 -4 -5 -1 -11 -2 -15 -1 -4 0 -4 -7 -1 -16 4 -11 3 -14 -5 -9
-8 5 -12 -1 -13 -16 0 -21 -1 -21 -8 -4 -7 19 -8 18 -15 -5 -5 -15 -9 -19 -13
-11 -4 10 -8 10 -21 0 -9 -7 -13 -8 -9 -2 3 6 0 11 -7 11 -8 0 -12 -6 -9 -13
2 -7 -5 -15 -16 -19 -12 -3 -19 -10 -17 -14 3 -4 -1 -8 -9 -8 -8 0 -15 5 -15
11 0 6 -4 5 -9 -2 -4 -8 -11 -13 -15 -13 -16 2 -18 0 -6 -14 11 -13 10 -14 -5
-9 -14 6 -16 4 -10 -6 6 -10 4 -12 -8 -7 -10 3 -17 2 -17 -4 0 -6 -4 -8 -9 -5
-4 3 -7 -7 -5 -22 2 -24 1 -25 -11 -9 -11 15 -13 15 -18 2 -4 -8 -13 -12 -22
-9 -8 3 -12 11 -8 18 4 6 -1 5 -10 -3 -17 -13 -17 -15 0 -35 15 -17 15 -18 1
-8 -10 8 -17 9 -20 2 -1 -5 -13 -12 -26 -15 -12 -2 -20 0 -17 5 3 5 -3 8 -14
7 -16 -1 -18 -4 -8 -16 10 -12 9 -13 -2 -6 -11 6 -13 3 -8 -14 4 -18 3 -20 -9
-10 -10 8 -14 9 -14 0 0 -9 -5 -9 -21 0 -18 9 -24 8 -31 -5 -5 -9 -14 -13 -20
-10 -7 4 -8 2 -4 -5 4 -6 12 -8 18 -5 7 4 8 2 4 -4 -4 -7 -14 -12 -22 -12 -10
0 -12 -5 -8 -12 5 -9 2 -8 -10 1 -15 13 -17 12 -12 -13 4 -23 2 -25 -9 -16
-10 9 -16 7 -24 -7 -6 -10 -11 -13 -11 -6 0 6 -11 10 -25 9 -14 -2 -25 -6 -25
-9 0 -4 0 -9 0 -12 0 -3 10 -1 23 5 21 11 21 10 3 -4 -11 -9 -24 -16 -29 -16
-4 0 -5 -6 -1 -12 5 -8 0 -7 -11 2 -17 14 -18 13 -12 -4 6 -15 5 -17 -6 -8
-10 9 -17 8 -27 -1 -9 -8 -11 -9 -6 0 3 6 2 14 -3 17 -5 4 -8 -5 -6 -19 2 -20
0 -23 -12 -14 -11 10 -12 8 -7 -7 6 -16 5 -17 -7 -6 -7 6 -18 12 -24 12 -5 0
-3 -5 5 -11 12 -8 8 -10 -16 -7 -29 4 -32 2 -28 -20 3 -14 1 -21 -6 -17 -5 3
-10 1 -10 -4 0 -6 -7 -11 -15 -11 -8 0 -15 5 -15 12 0 6 -3 8 -6 5 -4 -4 -1
-14 7 -24 9 -11 10 -14 2 -9 -12 6 -17 -4 -15 -25 1 -4 -7 -5 -18 -2 -11 3
-18 9 -15 13 3 5 -4 6 -15 3 -11 -3 -17 -10 -13 -16 4 -7 0 -8 -12 -3 -14 5
-16 4 -6 -7 9 -11 8 -17 -4 -27 -13 -11 -20 -9 -42 11 -19 16 -23 18 -13 5 13
-18 13 -19 -2 -14 -22 9 -30 -2 -16 -21 7 -9 8 -13 4 -9 -5 4 -15 0 -22 -10
-8 -10 -13 -12 -14 -4 0 6 -4 12 -9 12 -5 0 -8 -15 -6 -32 3 -21 1 -28 -4 -19
-6 10 -10 10 -16 1 -4 -6 -13 -9 -21 -6 -12 5 -12 2 -3 -15 6 -11 8 -23 5 -27
-3 -3 -6 0 -6 6 0 7 -5 12 -11 12 -5 0 -8 -4 -5 -8 2 -4 -7 -9 -22 -10 -21 -1
-24 0 -12 8 8 5 11 10 5 10 -5 0 -17 -5 -25 -10 -8 -5 -11 -10 -6 -10 6 0 1
-7 -10 -16 -10 -8 -13 -13 -6 -9 6 3 12 1 12 -6 0 -6 -8 -9 -19 -6 -10 2 -25
0 -32 -5 -11 -8 -10 -9 4 -4 9 3 17 1 17 -4 0 -5 -9 -12 -20 -15 -11 -4 -17
-11 -14 -17 4 -6 -1 -8 -16 -3 -16 5 -21 4 -18 -6 3 -8 10 -14 16 -14 5 0 14
-4 19 -9 4 -5 4 -7 -2 -4 -5 3 -16 0 -23 -8 -8 -9 -9 -14 -2 -14 6 0 8 -5 5
-10 -4 -6 -11 -8 -16 -5 -5 4 -9 1 -9 -5 0 -6 -4 -8 -10 -5 -6 4 -7 -1 -3 -11
4 -12 3 -15 -5 -10 -7 4 -12 1 -12 -8 0 -8 -5 -18 -12 -22 -7 -5 -8 -3 -3 7 5
8 -2 5 -16 -6 -13 -11 -26 -22 -29 -24 -3 -2 6 -1 20 3 14 3 19 3 12 0 -6 -3
-10 -9 -7 -14 3 -4 -5 -6 -17 -2 -16 4 -19 2 -13 -8 6 -10 4 -12 -7 -7 -12 4
-15 0 -14 -17 2 -13 7 -29 11 -36 5 -9 4 -11 -3 -6 -7 4 -12 2 -12 -4 0 -7 -7
-9 -16 -6 -10 4 -13 2 -8 -6 5 -8 2 -9 -11 -4 -15 6 -16 4 -4 -10 7 -8 13 -24
14 -35 1 -15 -1 -17 -13 -6 -13 10 -14 9 -3 -12 8 -15 9 -21 2 -17 -6 4 -17 1
-24 -6 -17 -18 -21 -59 -7 -68 8 -5 7 -9 -5 -13 -9 -4 -13 -3 -10 3 14 23 -14
8 -30 -16 -13 -20 -14 -28 -5 -34 9 -6 9 -9 -1 -13 -10 -4 -10 -6 -1 -6 6 -1
12 -6 12 -12 0 -5 -4 -8 -8 -5 -5 3 -9 -1 -9 -9 0 -8 4 -15 9 -15 4 0 8 -4 8
-9 0 -5 -11 -8 -25 -6 -14 1 -23 0 -20 -3 2 -3 -1 -12 -8 -20 -10 -13 -9 -14
3 -7 12 7 13 6 3 -6 -9 -12 -10 -18 -1 -27 8 -8 8 -15 -2 -27 -10 -12 -10 -15
1 -15 10 0 10 -3 2 -11 -6 -6 -9 -18 -6 -27 5 -11 3 -13 -8 -7 -12 7 -12 6 1
-11 8 -10 10 -16 6 -12 -5 4 -15 0 -23 -10 -10 -11 -12 -12 -8 -2 4 8 -3 4
-14 -10 -20 -24 -20 -25 -2 -41 17 -14 17 -17 3 -25 -13 -9 -13 -12 -2 -19 9
-6 11 -4 5 5 -5 9 -4 11 4 6 7 -5 9 -12 3 -19 -13 -19 -13 -59 1 -51 8 5 8 3
0 -7 -15 -15 -17 -53 -3 -44 6 3 7 -1 4 -9 -3 -9 -11 -13 -18 -10 -6 3 -2 -2
8 -10 18 -14 15 -20 -6 -17 -4 0 -5 -6 -2 -14 4 -8 11 -12 18 -8 6 4 5 -1 -2
-10 -8 -9 -12 -22 -9 -29 2 -7 0 -22 -6 -33 -10 -19 -9 -19 8 -5 12 9 16 10
11 2 -4 -7 -12 -26 -16 -43 -8 -28 -7 -29 7 -17 15 11 16 10 11 -10 -5 -18 -4
-21 7 -12 9 8 15 6 20 -7 10 -25 13 -73 4 -67 -4 2 -10 0 -14 -6 -3 -5 0 -10
8 -10 7 0 14 -7 14 -15 0 -8 -4 -12 -9 -9 -4 3 -8 0 -8 -5 0 -6 5 -11 10 -11
6 0 10 -5 10 -11 0 -5 -5 -7 -11 -4 -6 4 -5 -2 2 -14 10 -14 15 -17 21 -8 5 8
8 7 8 -5 0 -9 6 -18 13 -21 9 -3 9 -7 -2 -20 -9 -11 -10 -17 -2 -17 6 0 11 -5
11 -11 0 -5 -4 -8 -9 -4 -5 3 -13 1 -16 -5 -4 -6 -2 -9 5 -8 6 2 18 -10 28
-27 9 -16 21 -32 25 -33 4 -2 2 -11 -5 -20 -11 -13 -11 -14 0 -8 9 5 12 3 10
-7 -2 -9 1 -15 5 -14 5 1 13 -6 18 -16 6 -10 15 -14 22 -10 7 4 4 -6 -7 -21
-10 -16 -12 -25 -5 -21 9 6 11 4 6 -8 -3 -9 1 -21 11 -29 11 -9 14 -9 8 -1 -5
9 -2 11 9 7 13 -5 13 -9 3 -22 -10 -12 -10 -14 0 -8 12 7 16 -3 13 -36 -1 -10
4 -18 13 -18 8 0 18 -9 21 -20 4 -11 10 -18 15 -15 4 3 10 -5 13 -16 3 -11 15
-23 27 -26 12 -3 19 -11 16 -18 -2 -7 3 -12 11 -11 9 0 17 -7 18 -17 2 -11 -1
-15 -8 -10 -7 3 -3 -4 8 -17 13 -15 15 -21 5 -16 -9 5 -8 2 2 -7 10 -8 14 -18
10 -23 -4 -4 2 -2 13 6 11 8 17 11 13 6 -4 -4 -3 -13 3 -20 5 -6 17 -21 27
-33 20 -25 69 -43 58 -22 -4 8 -1 6 7 -3 11 -14 16 -15 26 -5 7 7 11 8 10 2
-5 -16 11 -55 22 -55 6 0 7 5 3 12 -4 7 -3 8 4 4 6 -4 9 -13 5 -21 -3 -11 2
-15 18 -15 19 0 21 -2 9 -10 -12 -8 -11 -10 8 -10 15 0 22 -6 22 -20 0 -20 11
-26 24 -13 10 11 37 12 30 2 -3 -5 -10 -6 -16 -3 -6 4 -8 2 -5 -4 4 -5 17 -8
29 -4 17 4 20 2 15 -13 -5 -13 -3 -16 8 -11 8 3 15 1 15 -3 0 -5 13 -8 29 -7
16 1 29 0 29 -3 0 -4 0 -15 1 -26 1 -17 3 -18 11 -5 7 10 10 11 11 3 5 -45 16
-54 62 -51 38 3 42 1 41 -19 0 -12 4 -21 10 -20 6 1 10 -4 8 -11 -1 -8 2 -11
8 -7 6 3 7 12 3 18 -3 7 2 4 13 -5 19 -17 22 -18 50 -18 14 0 14 -3 4 -15 -11
-13 -10 -14 4 -9 11 4 16 1 16 -10 0 -9 4 -16 10 -16 5 0 7 8 4 18 -5 16 -5
16 6 -1 6 -10 16 -14 23 -10 8 4 7 1 -1 -9 -10 -13 -10 -18 -1 -24 8 -4 9 -3
5 4 -10 16 7 15 23 0 11 -11 12 -10 6 0 -6 12 -3 12 15 2 12 -6 19 -17 16 -25
-7 -20 5 -27 22 -12 13 9 14 9 8 0 -9 -17 6 -17 23 0 11 9 13 9 7 0 -5 -9 0
-13 14 -13 18 0 19 -3 10 -20 -7 -14 -7 -20 0 -20 5 0 10 6 10 13 0 8 2 9 8 1
4 -6 18 -14 32 -18 17 -5 20 -4 12 2 -11 7 -11 10 2 15 9 4 15 1 13 -6 -1 -7
3 -11 9 -10 6 1 10 -9 9 -22 -2 -17 1 -23 13 -20 10 1 24 -4 32 -13 13 -14 12
-15 -2 -9 -12 4 -15 2 -12 -8 3 -8 12 -11 19 -9 7 3 22 1 33 -5 12 -6 23 -7
30 0 7 5 10 6 7 3 -3 -4 3 -13 13 -21 9 -8 12 -12 6 -9 -6 3 -11 -1 -11 -8 0
-13 31 -15 43 -3 12 12 26 8 18 -5 -5 -7 -2 -9 8 -5 10 3 20 -3 28 -19 8 -13
17 -24 22 -24 5 0 7 3 5 8 -3 4 7 8 21 8 15 1 21 -1 15 -3 -17 -6 0 -39 28
-54 17 -9 20 -8 14 2 -6 8 -4 10 4 5 7 -5 10 -13 8 -20 -2 -6 0 -20 5 -31 7
-18 8 -17 4 3 -5 23 -4 24 16 5 12 -10 18 -13 15 -7 -4 7 0 15 9 18 11 4 18
-1 21 -14 3 -11 9 -20 14 -20 5 0 9 -8 9 -17 0 -15 2 -16 10 -3 9 13 10 13 10
0 0 -13 1 -13 10 0 7 11 10 11 10 2 0 -7 5 -10 10 -7 6 4 7 12 3 18 -4 7 1 6
10 -2 14 -11 15 -16 5 -29 -11 -13 -10 -15 5 -9 20 7 22 -3 5 -23 -11 -12 -10
-12 6 0 16 12 20 12 31 -3 6 -9 15 -14 18 -10 4 3 7 2 7 -3 0 -5 10 -11 22
-11 13 -1 24 -7 26 -12 2 -5 11 -7 20 -4 14 4 15 3 2 -6 -18 -13 -9 -23 24
-25 14 0 26 -5 26 -9 0 -5 4 -5 10 -2 6 3 10 2 10 -3 0 -5 11 -15 25 -22 13
-7 22 -18 19 -24 -3 -6 1 -3 8 6 13 15 15 15 26 0 7 -9 10 -12 7 -5 -3 6 -1
14 4 17 5 4 8 -5 7 -18 -2 -17 5 -31 25 -45 25 -19 28 -19 23 -4 -5 17 -5 17
6 0 9 -14 9 -22 -2 -35 -10 -14 -9 -14 9 1 20 18 22 18 33 0 11 -17 11 -17 6
0 -3 10 -2 16 3 12 5 -3 11 -2 14 2 2 5 3 3 1 -3 -1 -6 7 -19 17 -28 11 -9 18
-20 15 -25 -3 -4 1 -8 9 -8 11 0 12 4 4 13 -9 11 -5 11 19 4 17 -4 33 -6 36
-3 2 3 2 -4 -1 -16 -3 -13 -1 -21 6 -21 7 0 9 -5 5 -12 -4 -7 -3 -8 5 -4 9 6
9 12 -1 24 -7 10 1 6 16 -8 16 -14 26 -19 22 -12 -11 19 19 15 35 -5 8 -10 9
-14 2 -10 -6 4 -15 2 -19 -4 -4 -8 -3 -9 4 -5 7 4 12 2 12 -4 0 -6 5 -8 10 -5
6 3 10 1 10 -6 0 -9 3 -9 14 0 12 10 13 8 9 -8 -3 -14 -1 -21 8 -21 12 0 12
-2 0 -9 -10 -7 -7 -9 12 -8 14 1 23 5 20 10 -2 4 1 7 6 7 6 0 11 -4 11 -10 0
-5 10 -10 23 -11 21 0 21 -1 2 -9 -17 -7 -17 -9 -2 -9 9 -1 17 -6 17 -12 0 -8
6 -7 17 2 11 10 14 10 9 2 -4 -8 -1 -13 9 -13 10 0 14 5 10 13 -4 6 0 4 8 -5
8 -10 17 -15 20 -11 4 3 8 -1 8 -10 3 -31 4 -35 13 -44 5 -4 7 -3 3 2 -3 6 4
17 15 24 18 11 20 11 15 -1 -3 -8 1 -15 9 -15 7 0 11 5 8 11 -3 6 1 2 10 -8 8
-10 13 -22 11 -27 -3 -4 8 -13 25 -21 16 -7 30 -17 30 -21 0 -5 -5 -5 -12 -1
-7 4 -8 3 -4 -5 4 -6 12 -9 17 -5 5 3 17 0 25 -7 12 -10 13 -9 8 5 -5 12 -2
15 9 10 19 -7 30 -32 20 -46 -3 -6 -1 -8 5 -4 5 3 12 3 15 -1 2 -5 2 -1 0 7
-2 10 2 8 12 -4 8 -11 15 -14 15 -8 0 7 9 12 20 12 11 0 20 -4 20 -8 0 -5 9
-20 21 -33 17 -20 22 -21 30 -9 8 12 9 10 4 -6 -4 -15 0 -24 10 -28 9 -3 13
-2 10 3 -3 5 0 13 6 17 8 4 9 3 5 -4 -4 -7 -3 -12 3 -12 6 0 8 -8 5 -17 -5
-17 -5 -17 6 0 6 9 16 17 23 17 7 0 6 -4 -3 -10 -13 -8 -12 -10 3 -10 10 0 15
-4 12 -10 -3 -5 -1 -10 5 -10 6 0 8 -4 5 -10 -3 -5 -1 -10 4 -10 6 0 11 5 11
11 0 6 7 3 16 -5 14 -14 34 -14 34 0 0 3 -5 2 -12 -2 -7 -4 -8 -3 -4 5 8 12
29 5 23 -7 -2 -4 7 -17 20 -29 13 -12 23 -17 23 -10 0 7 4 6 10 -3 8 -13 10
-12 10 3 0 15 2 16 14 5 10 -9 11 -15 2 -20 -7 -5 -4 -8 8 -8 12 0 16 -5 13
-14 -4 -11 -1 -13 10 -9 12 5 14 3 8 -7 -6 -10 -4 -12 9 -7 14 6 17 3 12 -9
-5 -14 -4 -15 8 -5 11 9 16 9 22 0 4 -8 3 -9 -4 -5 -7 4 -12 3 -12 -2 0 -14
37 -21 49 -9 7 7 12 2 16 -16 5 -18 11 -24 23 -20 11 5 13 3 7 -8 -6 -11 -5
-11 5 -3 9 9 17 7 34 -10 11 -11 20 -24 19 -27 -3 -8 51 -4 66 5 6 4 14 -1 18
-11 9 -23 29 -44 36 -37 3 3 4 -5 3 -18 -2 -15 2 -25 10 -25 7 0 11 3 9 7 -2
4 2 7 10 7 8 0 12 -4 9 -9 -3 -4 4 -8 16 -8 13 0 19 4 14 12 -4 7 -3 8 4 4 7
-4 12 -13 12 -21 0 -7 9 -17 20 -20 11 -3 20 -12 20 -18 0 -7 4 -6 10 3 8 12
10 12 11 -5 0 -16 2 -17 7 -4 6 14 9 14 27 -3 20 -19 20 -19 0 -13 -20 6 -20
6 0 -6 11 -7 24 -17 28 -23 5 -6 6 -3 2 9 -5 15 -3 17 6 8 6 -6 18 -9 27 -6
10 4 13 2 8 -5 -4 -7 -2 -12 4 -12 6 0 8 -5 4 -12 -6 -10 -5 -10 8 -1 18 15
29 7 21 -15 -4 -10 -2 -13 5 -8 6 3 14 1 19 -6 8 -13 9 -18 12 -40 1 -9 5 -8
11 3 8 13 40 18 69 10 2 -1 -2 -7 -8 -15 -10 -11 -8 -16 6 -20 10 -3 28 -4 41
-1 12 2 22 -1 22 -6 0 -6 5 -7 11 -3 8 5 8 1 0 -13 -13 -26 -4 -35 22 -22 14
8 18 8 13 0 -7 -10 6 -16 27 -12 5 1 6 -3 2 -9 -3 -5 -1 -18 5 -27 11 -17 11
-17 6 0 -3 9 -1 17 4 17 6 0 10 -8 11 -17 0 -10 3 -13 5 -6 3 7 12 9 20 6 7
-3 11 -10 7 -16 -4 -7 0 -8 12 -3 14 5 16 4 7 -7 -16 -19 -7 -25 34 -20 23 2
33 0 29 -7 -3 -5 -2 -10 4 -10 5 0 11 3 14 8 2 4 2 2 1 -5 -3 -11 14 -31 29
-32 4 -1 8 -1 10 -2 1 0 13 -2 27 -5 18 -3 21 -2 10 5 -8 5 -18 7 -24 4 -5 -3
-6 -1 -2 5 11 17 47 -4 40 -23 -4 -8 -1 -15 7 -15 7 0 10 -3 7 -6 -3 -3 5 -16
19 -30 26 -26 39 -32 27 -11 -5 7 0 6 11 -3 11 -9 16 -10 11 -2 -4 6 -2 12 3
12 6 0 11 -5 11 -11 0 -8 5 -7 16 1 8 8 14 9 13 4 -3 -18 13 -53 28 -58 7 -3
11 -2 8 3 -3 5 -1 12 5 16 5 3 10 1 10 -4 0 -6 9 -11 20 -11 11 0 19 -3 19 -7
-4 -26 2 -35 15 -24 10 9 16 9 21 1 4 -6 15 -8 26 -5 11 4 19 2 19 -5 0 -6 -5
-8 -12 -4 -7 4 -8 3 -4 -4 4 -7 14 -12 22 -12 8 0 14 -4 14 -10 0 -5 -8 -7
-17 -4 -15 5 -15 4 -3 -4 8 -6 17 -9 21 -6 4 2 11 -5 14 -17 5 -15 13 -19 27
-16 14 4 17 2 9 -7 -7 -8 -5 -12 9 -12 10 0 16 4 14 8 -7 11 33 4 43 -7 5 -4
3 -5 -4 -1 -7 4 -11 0 -10 -12 0 -10 7 -19 14 -19 6 0 10 3 8 7 -2 4 2 7 10 7
8 0 14 -3 13 -6 -2 -21 4 -22 18 -5 8 10 13 14 10 7 -8 -14 38 -70 58 -70 8 0
13 5 12 11 -2 6 -1 8 1 3 3 -4 8 -5 13 -2 4 3 6 -4 3 -15 -4 -17 -1 -19 27
-15 28 3 30 2 19 -13 -8 -9 -10 -14 -5 -10 4 4 14 1 21 -5 10 -9 10 -16 1 -27
-7 -10 -2 -9 18 4 24 15 28 16 23 3 -4 -12 -2 -14 11 -10 9 4 21 11 25 17 5 6
5 1 2 -11 -4 -14 -2 -23 5 -23 6 0 8 -4 5 -10 -4 -6 1 -7 11 -3 14 5 16 3 11
-13 -6 -14 -2 -13 14 6 11 14 18 19 14 13 -3 -7 0 -14 7 -14 7 -1 15 -2 18 -2
7 -1 55 -51 53 -57 0 -3 4 -4 11 -2 6 1 2 -5 -9 -14 -15 -13 -16 -15 -3 -11 9
3 19 1 22 -6 2 -7 5 -3 6 8 1 19 1 19 11 2 8 -14 14 -16 25 -6 11 9 14 9 14 0
0 -7 5 -9 13 -5 7 5 6 0 -3 -11 -14 -17 -13 -18 2 -12 11 4 21 0 27 -11 6 -9
11 -12 11 -6 0 13 30 15 30 2 0 -5 4 -7 9 -4 4 3 8 -4 7 -16 0 -12 6 -23 14
-25 13 -4 13 -3 1 5 -11 8 -8 10 12 9 15 -1 27 -5 27 -10 0 -4 3 -6 8 -6 18 3
32 -2 32 -12 0 -5 -5 -7 -12 -3 -7 4 -8 3 -4 -4 4 -7 16 -12 27 -12 13 0 18
-5 14 -12 -4 -7 1 -4 9 6 14 17 16 17 16 3 0 -11 7 -15 22 -12 16 4 19 2 10
-7 -17 -17 -15 -31 5 -24 9 4 20 1 25 -6 6 -10 8 -10 8 0 0 6 5 12 11 12 15 0
39 -26 39 -44 0 -8 5 -18 12 -22 7 -5 9 -2 5 8 -4 12 0 14 16 10 12 -2 29 -10
37 -16 13 -9 13 -9 2 6 -12 15 -11 16 10 14 27 -3 68 -27 68 -40 0 -5 -12 1
-27 15 l-27 24 25 -31 c13 -17 26 -28 29 -25 3 3 14 13 25 21 18 14 19 14 7
-2 -9 -11 -10 -18 -2 -23 5 -3 10 -1 10 4 0 6 7 11 15 11 8 0 15 -6 15 -12 0
-9 4 -8 10 2 5 8 10 11 10 6 0 -5 6 -4 13 1 13 11 46 13 45 4 -2 -20 4 -22 15
-6 11 14 16 15 22 5 6 -9 4 -11 -5 -5 -9 5 -11 4 -6 -3 5 -9 13 -8 30 4 21 13
25 13 39 0 13 -13 16 -13 20 -1 3 7 15 13 26 12 11 0 17 -5 15 -9 -8 -13 11
-9 25 5 9 7 11 7 8 1 -4 -7 0 -14 8 -17 10 -4 12 -1 8 11 -5 14 -3 14 17 -3
13 -11 20 -14 16 -7 -4 6 -3 12 1 12 5 0 15 -6 22 -12 11 -10 13 -10 7 0 -4 6
-4 13 1 13 32 5 52 5 51 0 -2 -20 4 -22 15 -6 11 14 16 15 22 5 6 -9 4 -11 -5
-5 -9 5 -11 4 -6 -3 5 -9 13 -8 30 4 21 13 26 13 38 0 13 -12 16 -11 27 6 10
16 15 18 29 7 9 -8 14 -10 10 -5 -9 11 19 39 32 31 5 -3 10 -2 10 2 0 5 9 9
20 9 11 0 20 -6 20 -14 0 -7 5 -10 10 -7 6 4 8 10 5 15 -3 4 3 7 12 5 10 -1
17 -9 16 -16 -2 -8 4 -4 13 9 9 12 23 22 31 22 9 0 13 6 10 14 -6 15 20 15 43
1 6 -4 9 -3 8 2 -1 4 3 18 10 29 8 16 19 21 42 18 23 -3 29 0 24 9 -6 9 -3 8
8 -1 13 -10 18 -10 24 -1 5 8 3 10 -7 5 -8 -4 -3 2 11 14 14 12 18 18 10 14
-8 -4 -11 -3 -7 1 14 16 37 14 38 -3 0 -14 2 -13 9 3 5 11 9 14 9 7 1 -7 5
-11 10 -7 6 3 8 14 6 25 -2 11 -1 19 3 19 21 -3 32 3 32 19 0 13 2 14 9 4 7
-11 9 -11 14 2 3 8 1 16 -6 19 -6 2 -2 6 10 9 16 4 20 2 16 -8 -4 -10 0 -12
11 -8 9 3 14 9 11 13 -2 4 2 8 10 8 8 0 12 -4 9 -8 -2 -4 0 -10 4 -13 5 -3 9
5 8 17 0 12 4 24 9 25 20 7 36 26 31 37 -2 6 2 12 10 12 7 0 10 -5 7 -11 -3
-6 3 -2 14 9 14 14 17 23 9 28 -6 5 -1 7 12 4 18 -4 21 -3 12 8 -8 10 -7 13 7
11 11 0 17 5 17 16 -1 10 2 15 7 12 5 -3 9 3 10 13 0 10 3 13 6 6 2 -7 10 -13
15 -13 6 0 8 3 5 6 -7 7 44 50 55 47 4 -2 5 4 1 13 -5 15 -7 15 -15 0 -5 -9
-19 -21 -31 -27 -17 -9 -15 -5 8 17 17 16 38 29 47 29 27 0 43 21 30 38 -9 10
-9 16 0 25 9 9 9 12 -2 12 -16 0 -3 15 13 15 7 0 11 8 11 17 -1 11 4 14 14 11
9 -4 13 -2 9 4 -4 5 5 15 18 21 14 7 25 16 25 22 0 6 -6 8 -12 4 -10 -6 -10
-4 0 7 6 7 12 17 12 22 0 4 -6 5 -12 1 -10 -5 -10 -4 -2 5 6 7 20 14 30 16 11
2 20 4 22 4 1 1 -3 11 -9 24 -11 19 -10 20 3 10 12 -11 14 -9 13 7 -1 11 -5
23 -10 27 -4 5 -5 2 0 -6 5 -10 4 -12 -4 -7 -14 9 -5 26 15 26 8 0 12 5 9 10
-4 6 -11 7 -17 4 -7 -5 -8 -2 -4 5 5 7 14 10 21 7 9 -3 12 2 10 15 -2 12 0 17
6 13 7 -4 10 8 8 32 -2 25 1 38 8 37 7 -2 14 6 18 16 3 11 12 22 20 25 8 3 15
11 15 18 0 9 -3 9 -11 -2 -9 -12 -10 -11 -6 7 3 13 1 26 -4 29 -5 3 -7 10 -4
15 4 5 1 9 -6 9 -6 0 -1 9 12 21 13 11 18 18 12 14 -9 -4 -13 2 -13 20 0 18 4
24 13 19 10 -6 10 -4 0 7 -18 18 -16 30 4 22 12 -5 14 -3 8 7 -6 10 -4 12 7 8
11 -5 14 0 10 19 -4 19 -1 24 7 18 9 -5 9 -1 -1 14 -11 18 -11 23 2 31 10 6
11 10 3 10 -7 0 -13 7 -13 15 0 8 6 15 13 15 8 0 7 4 -3 10 -13 8 -13 13 -2
31 8 11 9 18 3 14 -6 -3 -11 1 -11 9 0 9 6 16 13 16 8 0 8 3 -2 9 -9 6 -11 15
-6 27 15 35 14 46 -3 40 -15 -5 -15 -4 1 8 16 12 16 14 1 20 -15 6 -15 8 1 32
9 15 12 23 6 20 -10 -7 -16 7 -12 28 1 5 -5 3 -14 -4 -8 -7 -18 -10 -22 -6 -3
3 -1 6 5 6 7 0 12 5 12 11 0 6 -6 9 -14 6 -9 -4 -12 2 -10 19 1 13 -2 24 -8
24 -6 0 0 9 13 21 13 11 18 17 10 13 -11 -5 -13 -2 -9 13 3 11 1 28 -4 37 -7
13 -5 21 9 32 10 8 14 14 8 13 -23 -3 -29 2 -15 12 12 9 11 10 -7 6 -13 -3
-26 0 -30 5 -3 7 -1 8 5 4 7 -4 12 -2 12 3 0 6 -6 11 -14 11 -9 0 -12 8 -8 25
2 14 9 22 16 19 6 -3 2 1 -8 10 -10 8 -23 13 -29 9 -6 -3 -7 -1 -3 5 4 7 3 12
-3 12 -6 0 -7 7 -4 17 5 11 3 14 -6 8 -10 -6 -11 -2 -6 15 5 15 4 20 -4 16 -7
-5 -9 -1 -5 8 3 9 9 14 13 12 3 -2 6 6 6 19 0 18 -3 21 -12 13 -10 -8 -13 -6
-13 5 0 9 -5 19 -12 23 -7 4 -8 3 -4 -4 15 -25 -3 -10 -20 16 -11 17 -12 23
-3 15 11 -9 14 -7 15 13 1 13 -2 24 -8 24 -5 0 -6 -4 -3 -10 3 -5 -1 -10 -10
-10 -9 0 -13 5 -10 10 3 6 0 10 -7 10 -9 0 -9 3 2 10 13 8 13 10 -1 10 -9 0
-19 10 -22 22 -5 19 -8 20 -23 7 -13 -10 -16 -10 -10 -1 4 7 2 20 -6 30 -11
15 -11 15 2 5 12 -9 15 -7 16 13 1 15 -4 24 -12 24 -8 0 -14 5 -14 11 0 6 -7
8 -16 5 -8 -3 -12 -2 -9 3 3 6 -3 14 -12 20 -10 6 -13 11 -7 11 5 0 16 -6 24
-12 12 -11 12 -10 1 5 -7 9 -22 17 -32 17 -12 0 -19 7 -19 20 0 11 -5 20 -11
20 -5 0 -7 -4 -4 -10 10 -16 -1 -11 -16 7 -12 15 -12 16 1 8 8 -4 5 2 -7 14
-13 12 -23 27 -23 33 0 6 -7 5 -17 -3 -11 -10 -14 -10 -9 -1 4 6 3 12 -1 12
-5 0 -13 10 -18 23 -6 12 -16 21 -22 20 -6 -1 -17 11 -24 27 -9 19 -16 25 -21
17 -5 -8 -8 -4 -8 9 0 12 -7 25 -16 28 -8 3 -12 2 -9 -4 10 -16 -31 -6 -49 13
-10 9 -14 22 -10 28 4 7 -1 7 -16 -1 -13 -7 -20 -8 -16 -2 3 6 1 14 -5 17 -5
4 -8 12 -6 19 3 7 -11 11 -43 9 -44 -1 -47 1 -42 20 5 20 4 21 -11 8 -15 -12
-17 -12 -12 2 4 8 1 18 -6 23 -7 4 -10 3 -6 -4 5 -6 0 -8 -13 -5 -11 3 -20 10
-20 15 0 5 -6 6 -12 2 -7 -4 -4 3 7 16 11 13 13 20 6 15 -17 -10 -61 -13 -61
-5 0 3 6 12 13 19 10 11 10 13 0 7 -7 -4 -13 -2 -13 4 0 6 -4 8 -10 5 -5 -3
-10 0 -10 7 0 9 -3 9 -10 -2 -7 -11 -10 -11 -10 -2 0 8 -5 10 -12 5 -22 -13
-37 -12 -31 3 3 8 0 20 -6 28 -6 7 -7 17 -3 21 4 5 1 5 -6 1 -7 -4 -9 -13 -5
-19 4 -7 -2 -5 -12 3 -10 8 -16 10 -12 3 4 -6 3 -15 -3 -18 -6 -4 -9 -1 -8 7
2 7 -5 12 -14 12 -10 -1 -15 2 -12 7 3 5 -1 9 -8 9 -10 0 -9 3 2 11 12 9 11
10 -7 6 -18 -4 -23 -1 -23 15 0 10 -4 16 -10 13 -5 -3 -10 1 -10 11 0 11 -6
15 -20 11 -10 -3 -21 0 -24 7 -2 6 -5 2 -5 -9 -1 -19 -2 -19 -16 2 -8 12 -12
30 -9 40 6 16 5 16 -10 -2 -9 -11 -15 -14 -14 -6 2 7 -3 16 -11 19 -9 3 -11 0
-6 -8 6 -9 3 -9 -14 -1 -12 7 -26 9 -31 6 -6 -4 -7 1 -3 11 4 12 3 15 -5 10
-7 -4 -12 -1 -12 10 0 13 -3 14 -13 5 -8 -6 -17 -7 -21 -3 -4 4 -12 8 -17 8
-5 1 -13 2 -19 3 -5 0 -10 5 -10 11 0 5 8 7 18 4 9 -3 7 1 -6 8 -12 8 -19 18
-15 22 4 5 -2 5 -14 2 -18 -6 -20 -4 -16 14 4 16 2 19 -11 14 -11 -4 -16 0
-17 12 0 18 -1 17 -9 -1 -5 -11 -9 -14 -9 -6 -1 10 -4 11 -15 2 -19 -16 -32 5
-15 25 10 12 9 13 -6 8 -11 -5 -16 -4 -12 3 3 5 0 10 -8 10 -8 0 -11 -5 -8
-10 4 -6 1 -7 -8 -1 -8 4 -19 9 -26 10 -6 1 -19 7 -30 14 -16 10 -16 11 0 6
27 -9 20 2 -14 20 -21 10 -29 11 -23 3 5 -9 2 -10 -12 -5 -10 5 -25 9 -31 9
-9 0 -10 4 -2 14 6 7 8 14 3 14 -5 1 -13 2 -19 4 -5 1 -17 3 -24 3 -12 2 -12
5 -3 14 16 16 15 25 -4 32 -15 6 -15 4 -3 -10 13 -16 12 -16 -9 -5 -13 7 -30
10 -37 7 -10 -3 -12 0 -8 11 5 13 3 14 -16 3 -21 -11 -22 -10 -12 9 10 17 9
20 -5 14 -11 -4 -15 -3 -10 5 3 6 1 14 -5 18 -8 4 -9 3 -5 -4 4 -7 2 -12 -3
-12 -6 0 -11 6 -11 13 0 8 -4 7 -11 -3 -8 -11 -12 -12 -16 -2 -2 6 -12 12 -20
12 -13 0 -13 2 -2 17 10 11 10 14 2 9 -8 -4 -13 -2 -13 6 0 8 -3 9 -8 3 -4 -5
-13 -11 -21 -13 -12 -3 -12 0 -2 12 10 12 9 14 -8 9 -17 -4 -21 0 -22 18 0 13
-3 18 -6 12 -2 -7 -9 -13 -14 -13 -6 0 -7 6 -3 13 5 7 0 6 -11 -3 -11 -9 -16
-10 -11 -2 4 6 2 12 -3 12 -6 0 -11 5 -11 11 0 5 6 7 13 3 8 -5 7 -2 -2 9 -11
14 -17 15 -28 5 -8 -6 -13 -7 -12 -2 4 22 -2 26 -14 9 -11 -14 -16 -15 -22 -5
-6 9 -4 11 5 5 9 -6 11 -4 6 4 -5 7 -14 10 -22 7 -8 -3 -13 -2 -13 2 3 18 -2
32 -12 32 -5 0 -8 -4 -5 -8 3 -5 -2 -9 -10 -9 -8 0 -13 6 -10 13 3 8 0 11 -10
7 -7 -3 -14 0 -14 7 0 7 -8 10 -20 7 -11 -3 -18 -1 -15 3 3 5 2 10 -2 13 -5 2
-3 2 4 1 7 -2 15 1 18 7 4 5 3 9 -2 8 -4 -1 -19 -1 -33 0 -20 1 -22 3 -10 11
11 7 11 10 2 10 -7 0 -11 4 -8 9 3 4 -16 7 -42 6 -26 -2 -41 -1 -35 2 9 3 8
11 -4 29 -12 19 -19 22 -29 13 -10 -8 -14 -8 -14 0 0 6 -5 11 -11 11 -5 0 -7
-5 -3 -11 4 -8 0 -8 -15 0 -11 7 -21 16 -21 22 0 6 5 7 12 3 6 -4 8 -3 5 4 -4
5 -18 9 -32 7 -14 -1 -28 1 -30 6 -3 4 -14 6 -25 4 -17 -3 -19 -1 -9 17 7 14
8 18 0 14 -16 -10 -50 15 -43 33 3 9 2 13 -3 9 -4 -4 -14 0 -22 10 -8 9 -12
12 -9 6 3 -7 -1 -15 -9 -18 -10 -4 -19 2 -24 17 -5 12 -12 21 -17 20 -5 -2 -9
2 -9 7 0 6 -4 10 -9 9 -5 0 -13 5 -17 13 -7 10 -9 9 -9 -4 0 -9 -5 -20 -10
-23 -6 -4 -9 -1 -8 6 2 7 -8 18 -20 25 -17 8 -20 13 -10 17 12 5 -26 11 -46 8
-5 -1 -13 4 -17 11 -7 10 -9 10 -9 1 0 -7 -4 -13 -9 -13 -5 0 -8 13 -7 30 2
23 -1 27 -11 18 -9 -7 -13 -7 -13 1 0 7 -4 9 -10 6 -14 -8 -13 8 1 22 9 9 6
10 -11 6 -17 -5 -21 -3 -15 6 6 10 3 11 -13 2 -15 -8 -22 -8 -25 2 -4 9 -6 9
-6 0 -1 -18 -18 -16 -25 3 -3 8 -2 12 3 9 5 -3 13 0 17 6 5 8 3 9 -6 4 -10 -6
-12 -4 -6 11 6 15 5 17 -5 7 -18 -18 -32 -16 -25 3 5 13 4 14 -7 6 -10 -8 -17
-8 -24 -1 -8 8 -13 7 -18 -2 -6 -8 -4 -10 5 -4 9 5 11 4 6 -4 -11 -16 -26 -3
-19 16 5 12 3 14 -7 8 -10 -6 -12 -4 -7 8 3 9 3 16 -1 16 -4 -1 -15 -1 -26 0
-16 1 -17 3 -5 18 10 11 10 14 2 9 -8 -4 -13 -2 -13 5 0 8 -5 7 -17 -2 -10 -8
-14 -9 -10 -2 5 8 -3 13 -25 15 -22 2 -32 8 -30 17 4 21 -17 30 -47 21 -23 -6
-27 -4 -28 12 -2 24 -32 48 -50 41 -7 -3 -10 -9 -7 -14 3 -5 -2 -6 -10 -3 -9
3 -13 11 -9 17 4 6 0 8 -11 4 -9 -4 -15 -3 -11 2 3 6 -3 14 -12 20 -16 9 -16
12 -3 21 8 5 10 10 4 10 -5 0 -16 -6 -23 -12 -11 -11 -12 -9 -3 8 8 15 8 24 0
32 -13 13 -7 22 15 26 8 1 22 8 31 15 14 12 16 11 10 -5 -4 -14 -3 -15 4 -6 5
8 13 12 17 10 4 -1 16 13 26 32 11 19 19 30 20 25 0 -6 4 -2 8 8 4 10 9 17 12
15 3 -2 13 3 22 10 12 10 17 10 23 1 4 -8 3 -9 -4 -5 -8 5 -10 1 -5 -10 6 -16
8 -15 16 4 6 12 14 22 19 22 5 0 13 10 18 23 8 19 9 20 9 3 1 -20 1 -20 17 0
15 19 16 19 10 -1 -6 -20 -6 -20 9 -1 8 11 15 24 15 29 0 4 5 5 12 1 7 -5 9
-2 6 7 -4 10 3 15 23 16 16 1 29 -2 29 -8 0 -6 5 -7 11 -3 8 5 6 10 -5 16 -14
8 -15 13 -5 24 8 10 15 11 24 4 14 -12 45 -3 45 12 0 6 -5 7 -13 2 -7 -5 -5
-2 5 7 9 9 14 19 11 23 -4 3 -1 6 5 6 7 0 12 -6 12 -12 0 -10 3 -9 9 1 7 11 9
11 14 0 5 -12 6 -12 6 0 1 10 4 11 15 2 11 -9 16 -9 22 0 4 7 3 9 -3 6 -15 -9
-23 17 -11 34 8 11 9 10 4 -4 -4 -12 -2 -17 6 -14 7 2 12 10 10 17 -2 10 1 10
14 -1 16 -12 17 -12 12 2 -5 13 -2 16 13 12 10 -3 16 -10 12 -16 -3 -6 -1 -7
6 -3 6 4 9 12 6 17 -4 5 -1 9 5 9 6 0 8 5 4 13 -5 7 0 6 11 -3 17 -14 18 -14
6 8 -12 22 -11 23 9 12 13 -7 20 -8 16 -2 -3 6 -2 13 4 17 5 3 10 1 10 -6 0
-7 3 -9 6 -6 4 4 1 14 -7 24 -8 9 -9 14 -2 10 7 -4 17 0 23 10 10 16 10 16 5
-4 -3 -12 -1 -24 5 -28 6 -4 10 -3 9 2 -5 27 1 35 16 23 13 -11 14 -10 9 5 -5
12 -4 16 3 12 6 -4 13 2 16 13 3 14 10 18 21 14 9 -3 24 0 33 7 12 10 15 10 9
2 -4 -7 -2 -13 3 -13 10 0 16 21 12 42 0 4 7 4 16 1 11 -4 14 -3 9 5 -10 17 5
15 18 -3 9 -12 14 -12 36 6 14 11 19 18 13 14 -7 -3 -13 -1 -13 4 0 6 7 11 16
11 10 0 14 5 10 16 -3 8 -2 12 3 9 6 -3 13 1 18 8 4 7 17 13 28 14 36 0 75 21
69 37 -4 11 4 14 39 13 25 -1 43 1 41 5 -2 3 1 8 8 11 7 2 5 3 -5 1 -16 -2
-15 1 5 19 13 12 25 19 26 15 2 -5 10 -8 18 -8 9 0 12 5 9 10 -3 6 -1 10 4 10
6 0 11 -4 11 -10 0 -5 8 -2 18 8 11 9 17 20 15 25 -2 4 1 7 7 7 6 0 9 4 5 9
-3 6 4 8 15 6 13 -2 25 4 33 16 14 22 32 26 24 5 -4 -10 -1 -13 9 -9 8 3 13 8
10 10 -3 3 3 13 12 22 10 9 13 12 6 8 -7 -5 -15 -3 -20 4 -4 7 -3 9 4 5 6 -3
13 -2 16 3 3 5 22 7 41 4 35 -5 40 1 36 34 -1 7 5 10 12 7 8 -3 17 2 20 10 4
9 15 16 25 16 10 0 24 6 31 13 11 10 13 10 7 0 -4 -7 -3 -13 2 -13 5 0 12 9
15 21 3 12 10 18 16 14 7 -3 8 0 5 9 -4 10 -1 16 9 16 8 0 18 -6 20 -12 3 -7
6 -3 6 10 1 21 2 22 17 8 19 -19 19 -19 33 -2 9 11 9 16 0 22 -8 5 -9 3 -4 -6
5 -9 4 -11 -4 -6 -22 14 7 38 31 25 15 -8 19 -8 14 0 -9 14 7 14 21 0 8 -8 13
-7 18 2 5 8 4 10 -3 5 -7 -4 -12 -2 -12 3 0 6 7 11 16 11 8 0 13 4 10 9 -3 5
3 11 14 14 11 3 19 11 18 19 -2 8 5 13 19 12 15 -1 20 3 15 14 -4 11 -2 13 9
6 36 -22 69 -4 46 25 -10 12 -9 13 2 6 9 -5 19 -2 28 10 10 15 13 16 13 4 0
-9 7 -16 15 -16 8 0 12 3 10 7 -4 7 28 40 52 54 6 3 15 1 19 -5 5 -8 3 -9 -6
-4 -9 5 -11 4 -6 -3 5 -9 12 -9 26 0 10 7 16 16 13 22 -4 5 1 7 12 2 15 -5 16
-4 5 9 -11 13 -10 14 3 10 15 -7 50 32 42 46 -3 4 4 5 15 2 13 -4 32 5 56 26
35 31 37 32 55 15 18 -16 19 -17 13 -1 -5 13 -2 16 10 11 12 -5 15 -2 9 12 -4
11 -3 15 4 11 6 -4 13 -2 15 5 4 12 38 21 38 9 0 -4 7 -8 15 -8 9 0 14 6 11
14 -4 8 4 17 19 23 14 5 25 12 25 15 0 4 -5 3 -12 -1 -7 -5 -8 -3 -4 5 5 7 15
10 23 6 14 -5 14 -3 2 12 -8 9 -9 14 -3 10 7 -4 15 0 18 9 6 15 9 15 28 -2 12
-11 18 -13 14 -6 -5 8 0 12 13 12 11 0 23 4 26 10 4 6 -1 7 -12 3 -12 -4 -10
1 7 15 15 13 29 17 35 11 5 -5 16 -9 25 -9 13 0 13 2 0 11 -12 9 -11 10 6 6
18 -4 22 0 20 17 -2 18 2 22 26 20 15 -1 31 3 35 9 3 5 1 7 -4 4 -6 -4 -13 0
-16 8 -4 10 -1 12 10 8 9 -4 22 1 31 13 14 19 15 19 8 -1 -4 -11 -4 -16 0 -12
4 4 14 1 22 -6 13 -10 14 -9 7 3 -13 21 -14 50 -2 57 6 3 7 1 3 -5 -4 -6 1
-10 13 -9 10 0 17 7 14 13 -3 8 2 11 16 7 11 -3 22 -12 25 -22 3 -9 4 -4 2 12
-3 23 -1 25 12 15 13 -10 14 -10 8 0 -4 7 -2 12 6 12 10 0 9 3 -2 11 -12 9
-11 10 8 6 12 -3 20 -1 16 4 -3 5 2 9 10 9 9 0 16 5 16 11 0 5 -6 7 -12 3 -9
-5 -8 -2 1 9 11 14 16 15 29 5 13 -11 14 -10 3 9 -10 20 -9 22 6 16 12 -5 15
-2 10 9 -4 13 2 15 33 14 22 -1 36 2 33 7 -8 13 37 56 53 50 10 -4 12 0 7 13
-4 12 -3 15 5 10 7 -4 12 -2 12 4 0 6 3 9 8 6 4 -2 12 7 19 20 6 13 7 22 2 18
-5 -3 -9 0 -9 6 0 6 -5 8 -12 4 -7 -4 -8 -3 -4 5 4 6 12 8 18 5 8 -5 9 -1 4
11 -5 15 -4 16 9 5 13 -11 14 -10 8 6 -6 17 -5 17 10 5 15 -12 17 -12 11 4 -6
14 -4 16 7 10 12 -7 12 -6 1 7 -10 13 -10 18 -1 24 8 4 9 3 5 -4 -4 -7 -2 -12
4 -12 6 0 13 7 16 15 4 8 10 13 15 10 4 -3 6 4 4 16 -4 18 -2 19 12 7 12 -9
15 -9 9 0 -4 7 -2 12 4 12 7 0 10 7 7 15 -4 8 -2 17 4 21 6 4 6 11 -2 20 -10
12 -10 15 2 12 8 -2 13 3 11 11 -2 9 3 11 14 7 12 -5 15 -2 10 9 -4 11 -2 14
6 9 8 -5 9 2 5 24 -5 22 -3 31 6 29 6 -1 11 3 10 10 -2 7 7 10 25 7 15 -2 22
-1 17 3 -6 5 -11 22 -12 39 0 24 5 35 22 44 14 7 21 18 18 26 -3 8 1 22 8 31
10 11 10 14 2 9 -9 -5 -12 1 -11 21 2 40 7 46 26 31 12 -10 14 -10 8 0 -4 7
-1 12 9 12 15 0 15 1 1 16 -9 8 -16 17 -16 19 0 2 7 11 16 19 8 9 11 16 5 16
-6 0 -11 7 -11 16 0 9 5 12 13 8 8 -5 8 -2 -2 9 -11 14 -11 17 0 17 8 0 6 5
-6 13 -12 10 -14 16 -7 21 7 4 17 4 22 1 6 -3 13 1 16 9 3 9 11 13 18 9 6 -3
6 -1 -1 8 -18 19 -16 29 5 23 16 -5 16 -5 -1 6 -10 6 -14 16 -10 23 11 18 10
67 -2 67 -5 0 -3 5 5 10 13 9 13 10 0 10 -13 0 -13 1 0 10 12 8 12 10 1 10
-11 0 -11 3 -1 15 9 10 9 15 1 15 -6 0 -11 5 -11 11 0 5 5 7 10 4 13 -8 8 17
-5 28 -6 4 -4 11 5 17 13 9 13 10 0 10 -13 0 -13 1 0 10 11 7 11 10 2 10 -10
0 -10 5 -2 20 10 19 6 24 -13 21 -5 -1 -5 3 -2 9 4 6 14 9 22 5 12 -4 13 -3 5
8 -7 8 -9 17 -5 20 3 4 -1 7 -11 7 -9 0 -14 5 -11 10 4 6 11 8 16 5 20 -13 8
13 -18 36 -14 13 -23 19 -19 12 3 -6 3 -14 -1 -16 -5 -3 -9 10 -10 29 -1 21 3
34 10 34 7 0 6 4 -3 10 -12 8 -13 13 -2 30 14 23 16 42 2 20 -8 -13 -10 -12
-10 3 0 9 5 17 10 17 6 0 5 6 -2 14 -7 8 -17 11 -22 8 -5 -3 -7 2 -3 11 4 11
2 14 -9 10 -7 -3 -14 -1 -14 5 0 6 6 13 13 15 10 4 10 6 0 6 -15 1 -17 47 -3
56 15 9 12 22 -6 29 -14 5 -15 4 -5 -8 11 -13 9 -13 -13 -3 -16 8 -21 14 -13
20 9 5 5 13 -12 27 -16 14 -19 20 -8 20 16 0 17 24 2 37 -4 4 -5 2 -1 -4 4 -7
2 -13 -3 -13 -6 0 -12 5 -12 10 -3 20 -5 25 -14 40 -5 8 -8 24 -7 35 2 17 1
17 -7 5 -9 -12 -11 -10 -12 10 0 14 -3 19 -6 13 -2 -7 -9 -13 -14 -13 -4 0 -5
7 -2 17 5 12 3 14 -8 8 -11 -6 -12 -5 -1 6 6 7 12 17 12 22 0 4 -6 5 -12 1 -9
-5 -9 -2 1 9 12 15 11 17 -3 17 -10 0 -14 5 -11 10 3 6 -2 10 -12 10 -21 0
-43 18 -43 34 0 6 5 3 11 -6 5 -10 14 -18 19 -18 6 0 2 9 -7 19 -9 11 -22 17
-30 14 -8 -3 -13 -2 -12 3 3 19 -1 37 -7 31 -11 -11 -43 33 -37 49 3 8 2 14
-3 13 -5 -1 -20 3 -34 9 -22 9 -22 11 -5 12 19 1 19 2 3 14 -10 7 -15 16 -11
19 6 7 -12 11 -30 8 -5 -1 -6 3 -2 9 3 5 1 10 -6 10 -7 0 -9 8 -6 21 4 16 3
18 -8 9 -10 -8 -15 -8 -20 0 -5 8 -11 8 -21 -1 -11 -9 -14 -8 -14 5 0 10 -4
15 -9 11 -5 -3 -12 4 -16 14 -4 14 -11 18 -23 14 -15 -6 -15 -5 -3 10 9 12 10
17 2 17 -7 0 -9 5 -5 13 6 9 4 9 -8 -1 -13 -10 -17 -10 -22 4 -3 9 -4 19 -1
24 3 4 -5 6 -17 2 -21 -5 -22 -4 -9 12 8 9 11 19 7 23 -3 3 -6 1 -6 -6 0 -8
-8 -11 -20 -8 -11 3 -18 2 -15 -3 3 -4 -2 -11 -11 -14 -8 -3 -12 -2 -9 4 3 6
1 10 -6 10 -6 0 -9 8 -6 20 3 11 1 17 -4 14 -6 -3 -16 0 -24 6 -12 10 -15 9
-15 -6 0 -15 -2 -16 -9 -5 -5 7 -13 11 -18 8 -5 -3 -15 3 -21 14 -12 19 -11
19 10 9 21 -10 22 -10 5 4 -11 8 -26 12 -35 8 -15 -5 -16 -4 -2 14 14 18 14
18 -5 2 -17 -14 -24 -15 -44 -4 -15 9 -20 16 -12 20 20 13 2 26 -23 16 -12 -4
-29 -4 -36 0 -8 5 -19 5 -25 1 -9 -6 -18 -7 -41 -2 -4 0 -1 8 6 17 8 8 9 14 4
13 -22 -4 -34 2 -34 19 0 14 -2 15 -10 2 -9 -13 -10 -13 -10 0 0 13 -1 13 -10
0 -9 -13 -10 -13 -11 0 0 10 -3 8 -9 -5 -5 -11 -9 -15 -9 -9 -1 7 -8 15 -17
18 -12 5 -15 2 -10 -11 6 -16 6 -16 -12 0 -14 13 -21 14 -30 5 -9 -9 -12 -8
-12 6 0 11 -5 16 -14 13 -10 -4 -12 1 -9 16 4 18 3 19 -6 7 -10 -13 -11 -13
-11 0 0 13 -1 13 -10 0 -9 -13 -10 -13 -10 0 0 13 -1 13 -10 0 -8 -12 -10 -12
-10 -1 0 9 -4 10 -12 4 -20 -14 -77 -10 -89 7 -8 12 -10 9 -5 -10z m861 -349
c3 -5 1 -12 -5 -16 -5 -3 -10 1 -10 9 0 18 6 21 15 7z m-2105 -151 c0 -5 -5
-10 -11 -10 -5 0 -7 5 -4 10 3 6 8 10 11 10 2 0 4 -4 4 -10z m-200 -110 c0 -5
-5 -10 -11 -10 -5 0 -7 5 -4 10 3 6 8 10 11 10 2 0 4 -4 4 -10z m2617 -155 c0
-11 -4 -12 -14 -4 -7 6 -13 13 -13 15 0 2 6 4 13 4 8 0 14 -7 14 -15z m-3320
-256 c-9 -6 -14 -15 -11 -21 4 -7 2 -8 -5 -4 -14 9 3 36 23 36 6 0 3 -5 -7
-11z m3468 -149 c3 -5 1 -10 -4 -10 -6 0 -11 5 -11 10 0 6 2 10 4 10 3 0 8 -4
11 -10z m-4271 -304 c-3 -8 -13 -17 -22 -21 -13 -5 -13 -2 3 15 21 24 26 25
19 6z m-167 -91 c0 -8 -4 -12 -9 -9 -5 3 -6 10 -3 15 9 13 12 11 12 -6z m4318
-355 c3 -5 1 -10 -4 -10 -6 0 -11 5 -11 10 0 6 2 10 4 10 3 0 8 -4 11 -10z
m-5592 -395 c-3 -9 -8 -14 -10 -11 -3 3 -2 9 2 15 9 16 15 13 8 -4z m-145 -90
c-10 -10 -49 -14 -43 -4 4 5 10 7 15 4 5 -3 12 0 15 6 4 5 10 8 13 5 3 -3 3
-8 0 -11z m-158 -89 c0 -3 -4 -8 -10 -11 -5 -3 -10 -1 -10 4 0 6 5 11 10 11 6
0 10 -2 10 -4z m4520 -552 c0 -8 -19 -13 -24 -6 -3 5 1 9 9 9 8 0 15 -2 15 -3z
m-360 -184 c0 -5 -5 -10 -11 -10 -5 0 -7 5 -4 10 3 6 8 10 11 10 2 0 4 -4 4
-10z m-215 -129 c3 -5 1 -12 -5 -16 -5 -3 -10 1 -10 9 0 18 6 21 15 7z m-5448
-605 c0 -8 -6 -12 -14 -9 -7 3 -10 9 -7 14 8 14 21 11 21 -5z m4261 -106 c-7
-10 -14 -17 -17 -15 -4 4 18 35 25 35 2 0 -1 -9 -8 -20z m-3998 -850 c0 -5 -5
-10 -11 -10 -5 0 -7 5 -4 10 3 6 8 10 11 10 2 0 4 -4 4 -10z m35 -58 c-3 -3
-11 0 -18 7 -9 10 -8 11 6 5 10 -3 15 -9 12 -12z m510 -422 c-3 -5 -1 -10 6
-10 7 0 10 -3 6 -6 -9 -9 -28 6 -22 17 4 5 8 9 11 9 3 0 2 -4 -1 -10z m155
-64 c0 -3 -4 -8 -10 -11 -5 -3 -10 -1 -10 4 0 6 5 11 10 11 6 0 10 -2 10 -4z
m634 -382 c3 -8 2 -12 -4 -9 -6 3 -10 10 -10 16 0 14 7 11 14 -7z m531 -314
c3 -6 -1 -7 -9 -4 -18 7 -21 14 -7 14 6 0 13 -4 16 -10z m615 -350 c0 -5 -2
-10 -4 -10 -3 0 -8 5 -11 10 -3 6 -1 10 4 10 6 0 11 -4 11 -10z m577 -342 c-3
-8 -6 -5 -6 6 -1 11 2 17 5 13 3 -3 4 -12 1 -19z m123 -59 c0 -4 -7 -6 -15 -3
-8 4 -15 10 -15 15 0 4 7 6 15 3 8 -4 15 -10 15 -15z m944 -555 c3 -8 2 -12
-4 -9 -6 3 -10 10 -10 16 0 14 7 11 14 -7z m311 -174 c3 -5 1 -10 -4 -10 -6 0
-11 5 -11 10 0 6 2 10 4 10 3 0 8 -4 11 -10z m2530 -69 c-3 -6 -11 -8 -17 -5
-6 4 -5 9 3 15 16 10 23 4 14 -10z m-2355 -31 c0 -5 -2 -10 -4 -10 -3 0 -8 5
-11 10 -3 6 -1 10 4 10 6 0 11 -4 11 -10z"/>
<path d="M12891 14907 c-1 -12 -3 -28 -3 -36 -1 -10 -5 -8 -15 5 -7 10 -13 12
-13 6 0 -16 -27 -15 -33 1 -4 8 -6 8 -6 0 -1 -6 -9 -9 -20 -6 -10 3 -22 0 -26
-7 -5 -8 -11 -8 -19 0 -10 7 -20 5 -38 -10 -14 -10 -29 -16 -34 -12 -5 4 -2
-1 5 -11 13 -16 12 -17 -13 -8 -16 7 -26 7 -26 1 0 -5 -6 -7 -14 -4 -8 3 -17
0 -21 -5 -3 -6 -11 -9 -16 -6 -5 4 -9 1 -9 -5 0 -6 -4 -8 -10 -5 -5 3 -10 -1
-10 -9 0 -8 -5 -18 -12 -22 -7 -4 -8 -3 -4 5 5 8 -2 11 -23 9 -23 -2 -28 -5
-19 -15 8 -11 7 -12 -8 -6 -16 6 -17 4 -7 -8 10 -12 8 -15 -7 -15 -10 0 -16 5
-13 11 4 5 -3 2 -14 -7 -11 -10 -24 -18 -29 -18 -5 0 -3 4 4 9 11 7 11 9 -2
14 -9 4 -15 3 -15 -1 5 -29 -3 -51 -15 -46 -8 3 -17 0 -21 -5 -3 -6 -11 -9
-16 -6 -5 4 -18 3 -30 0 -16 -5 -18 -10 -9 -20 10 -12 8 -13 -10 -10 -19 4
-20 2 -8 -12 12 -15 11 -15 -9 -5 -20 11 -21 10 -17 -16 3 -20 2 -23 -6 -12
-9 14 -14 7 -11 -13 1 -5 -3 -6 -8 -3 -5 3 -15 -2 -22 -11 -10 -12 -10 -14 -1
-9 6 4 12 5 12 2 0 -3 -10 -10 -21 -17 -17 -9 -20 -8 -14 2 6 9 3 11 -9 6 -10
-4 -26 -7 -36 -7 -18 0 -21 -14 -8 -36 4 -6 1 -11 -7 -11 -8 0 -12 4 -9 9 3 4
0 8 -5 8 -6 0 -11 -7 -11 -16 0 -9 -5 -12 -12 -8 -8 5 -9 2 -5 -11 6 -14 3
-16 -12 -12 -15 4 -18 0 -16 -19 1 -16 -3 -24 -13 -24 -13 0 -12 -3 4 -15 16
-13 16 -14 1 -9 -13 5 -16 2 -10 -12 4 -12 3 -15 -5 -10 -7 4 -12 2 -12 -5 0
-8 -4 -8 -15 1 -21 17 -19 5 3 -16 16 -17 16 -17 -5 -12 -13 3 -26 1 -30 -4
-3 -7 -1 -8 5 -4 7 4 12 2 12 -3 0 -6 -4 -12 -10 -12 -5 -1 -14 -3 -20 -4 -5
-1 -13 -3 -17 -4 -5 -1 -2 -5 5 -10 10 -6 9 -11 -4 -22 -10 -8 -15 -9 -11 -3
3 6 0 11 -8 11 -13 0 -13 -26 1 -50 6 -9 5 -9 -7 0 -13 10 -15 8 -13 -17 1
-18 -2 -27 -10 -24 -6 2 -16 -7 -23 -21 -9 -20 -8 -27 4 -34 13 -7 13 -9 -2
-15 -9 -3 -21 -4 -26 -1 -5 4 -6 -2 -2 -11 5 -13 3 -15 -7 -9 -10 6 -12 3 -8
-13 4 -12 2 -20 -3 -16 -5 3 -9 -4 -9 -15 0 -10 -6 -22 -12 -25 -7 -3 -2 -3
12 0 24 6 24 5 5 -9 -10 -8 -24 -13 -31 -10 -6 2 -14 -5 -17 -16 -3 -12 -2
-19 3 -16 10 6 19 -16 13 -33 -3 -6 -10 -9 -16 -5 -7 3 -4 -3 6 -14 14 -16 15
-23 6 -29 -8 -4 -10 -3 -5 4 4 7 3 12 -2 12 -5 0 -12 -9 -15 -21 -3 -12 -10
-18 -16 -14 -6 3 -11 0 -11 -9 0 -8 -3 -16 -7 -19 -5 -2 -3 -2 4 -1 7 2 15 -1
18 -6 4 -6 0 -10 -8 -10 -10 0 -12 -9 -9 -31 4 -24 2 -30 -8 -24 -9 5 -11 4
-6 -4 4 -6 11 -9 16 -6 5 3 11 1 15 -5 3 -5 0 -10 -8 -10 -10 0 -13 -9 -11
-27 2 -24 1 -26 -10 -11 -11 15 -13 15 -26 -5 -19 -30 -20 -44 -4 -58 8 -6 11
-15 8 -20 -3 -5 0 -9 7 -9 6 0 1 -9 -12 -21 -13 -11 -18 -18 -11 -14 8 4 12
-2 12 -20 0 -17 -4 -24 -11 -19 -6 3 -4 -4 5 -17 10 -17 12 -29 6 -39 -14 -21
-12 -33 3 -24 7 5 6 0 -3 -11 -9 -11 -10 -16 -2 -11 6 4 12 2 12 -3 0 -6 -8
-11 -17 -12 -11 0 -13 -3 -5 -6 6 -2 12 -11 12 -19 0 -10 -5 -12 -12 -8 -10 6
-10 4 -2 -7 13 -16 19 -68 12 -98 -2 -7 4 -16 12 -18 13 -4 13 -3 0 6 -12 8
-11 10 7 9 14 -2 19 -7 15 -18 -5 -13 -4 -13 13 0 18 14 18 14 3 -9 -12 -17
-14 -30 -8 -47 8 -20 6 -24 -8 -24 -14 0 -15 -2 -2 -10 9 -6 14 -22 12 -47 -1
-30 0 -34 7 -18 8 16 10 17 10 3 1 -9 6 -20 13 -24 7 -4 8 -3 4 4 -4 7 -2 12
4 12 8 0 9 -7 5 -17 -4 -10 -7 -26 -7 -36 1 -11 -4 -15 -11 -11 -8 5 -8 3 1
-7 6 -7 12 -21 12 -31 0 -10 5 -18 11 -18 5 0 7 -5 3 -11 -5 -8 -1 -8 14 0 19
10 20 8 17 -19 -3 -22 -1 -29 8 -23 9 5 9 3 1 -8 -9 -11 -9 -17 2 -27 8 -7 14
-10 14 -7 0 3 6 0 13 -6 18 -17 17 -52 0 -37 -10 8 -12 7 -7 -6 3 -9 10 -16
15 -16 5 0 9 -8 9 -17 0 -15 2 -16 10 -3 7 11 10 11 10 2 0 -7 4 -11 8 -8 5 3
9 -1 9 -9 0 -8 -4 -12 -9 -9 -4 3 -8 0 -8 -5 0 -6 5 -11 12 -11 6 0 8 -3 5 -7
-4 -3 -1 -13 6 -21 6 -9 7 -13 1 -9 -6 3 -11 0 -11 -7 0 -7 6 -13 14 -13 7 0
13 5 13 11 0 6 4 4 10 -4 5 -9 5 -19 -1 -26 -6 -8 -2 -11 14 -9 15 2 28 -5 37
-19 12 -20 12 -20 -6 -6 -18 14 -18 14 -5 -3 8 -10 20 -16 27 -13 8 3 13 0 11
-7 -1 -7 4 -11 11 -9 9 1 11 -2 6 -10 -17 -26 -7 -56 31 -91 21 -20 43 -33 49
-30 6 4 4 -2 -4 -12 -14 -17 -14 -18 10 -5 23 12 24 12 11 -4 -8 -9 -11 -19
-7 -23 3 -3 6 -2 6 4 0 5 7 10 15 10 8 0 15 -3 15 -7 0 -3 9 -6 19 -6 11 0 17
5 14 10 -4 5 -1 6 6 2 7 -5 10 -14 7 -22 -3 -8 1 -14 9 -14 8 0 15 -8 15 -17
0 -15 2 -16 10 -3 8 13 10 12 10 -3 0 -12 4 -16 13 -11 7 5 6 0 -3 -11 -14
-17 -13 -18 8 -13 23 6 33 -17 10 -24 -7 -3 -5 -7 6 -11 10 -4 15 -3 11 3 -3
6 -1 10 4 10 6 0 11 -4 11 -9 0 -5 7 -12 16 -15 10 -4 13 -2 8 6 -5 8 -2 9 10
5 10 -4 22 -7 26 -7 5 0 7 -9 5 -20 -3 -18 -1 -19 18 -8 19 10 21 9 9 -4 -10
-13 -10 -18 -1 -24 8 -4 9 -3 5 4 -4 7 -1 12 8 12 9 0 16 -6 17 -12 0 -7 4 -4
9 7 8 18 9 17 9 -8 1 -26 3 -27 24 -16 20 11 21 11 8 -5 -12 -14 -12 -16 2
-10 10 3 20 -2 27 -16 7 -13 8 -20 3 -17 -5 4 -10 1 -10 -6 0 -7 14 -12 32
-12 24 0 31 4 28 15 -3 8 4 3 13 -12 10 -16 24 -28 31 -28 7 0 13 -6 13 -12 0
-10 3 -9 9 1 7 11 11 10 21 -5 10 -16 11 -16 6 -1 -3 9 -1 17 4 17 6 0 10 -7
10 -16 0 -8 4 -13 9 -10 5 4 7 -4 4 -16 -4 -18 -3 -20 6 -8 9 13 12 13 23 1
11 -12 10 -12 -2 -6 -12 7 -13 6 -3 -7 7 -8 10 -18 6 -22 -4 -4 1 -4 11 0 14
5 17 4 12 -4 -4 -7 -2 -12 3 -12 6 0 11 6 11 13 0 7 5 5 10 -5 7 -10 17 -14
32 -10 18 4 20 2 16 -16 -5 -16 -2 -19 11 -14 14 5 15 4 1 -14 -14 -17 -14
-18 2 -6 9 8 23 10 29 6 7 -4 9 -3 5 4 -3 6 -2 13 3 16 8 5 24 -28 23 -45 -1
-3 18 -5 41 -5 42 2 67 -8 67 -26 0 -5 -5 -6 -12 -2 -7 4 -8 3 -4 -4 4 -7 14
-12 22 -12 8 0 14 -5 14 -11 0 -5 6 -7 13 -3 9 6 9 5 -1 -8 -10 -13 -9 -18 5
-29 11 -9 14 -10 9 -1 -4 6 -3 12 3 12 5 0 13 -5 16 -10 4 -7 13 -6 26 1 12 6
23 8 27 5 3 -3 0 -6 -7 -6 -9 0 -8 -4 3 -15 8 -8 20 -15 26 -15 6 0 8 -4 5
-10 -8 -13 1 -13 27 1 16 8 19 8 13 -1 -5 -9 -1 -10 16 -5 17 4 20 4 10 -3
-12 -9 -12 -12 1 -25 12 -12 18 -13 28 -4 10 9 11 9 6 0 -4 -7 -3 -13 1 -13 5
0 15 6 22 13 11 10 13 10 7 0 -4 -8 -2 -13 5 -13 7 0 10 -3 6 -6 -3 -4 0 -13
8 -20 17 -17 29 -18 19 -2 -4 7 -3 8 4 4 6 -4 9 -13 6 -20 -3 -8 0 -17 5 -21
6 -3 8 -11 5 -17 -4 -7 -2 -8 5 -4 9 6 9 11 1 21 -8 10 -8 15 1 21 7 4 10 3 6
-2 -3 -5 1 -18 9 -29 8 -10 14 -14 14 -7 0 17 41 5 57 -18 11 -15 21 -19 36
-14 22 6 22 6 2 -10 -19 -16 -19 -16 7 -7 28 10 56 -8 44 -28 -4 -5 -1 -13 5
-17 8 -4 9 -3 5 4 -4 7 -2 12 3 12 6 0 11 -6 12 -12 0 -7 4 -4 9 7 8 19 9 19
9 -2 1 -15 9 -25 26 -29 14 -3 25 -11 25 -18 0 -7 4 -6 9 2 6 11 10 10 15 -4
4 -11 2 -20 -3 -22 -6 -2 -11 -8 -11 -14 0 -6 8 -3 19 6 17 16 19 16 25 -6 6
-22 7 -22 20 -5 12 15 14 16 20 2 3 -8 9 -15 13 -14 20 3 27 -2 13 -11 -13 -9
-13 -11 0 -20 10 -6 22 -5 37 5 16 11 24 12 29 3 5 -7 3 -8 -6 -3 -9 6 -11 4
-6 -4 5 -7 14 -10 22 -7 10 4 14 -3 14 -22 0 -21 2 -24 10 -12 7 11 10 11 10
2 0 -8 5 -10 13 -6 9 6 9 4 -1 -8 -10 -13 -8 -18 12 -32 25 -16 61 -12 50 5
-3 5 2 6 11 3 9 -4 13 -9 11 -12 -3 -3 2 -11 12 -19 9 -8 12 -12 5 -9 -6 4
-14 3 -16 -1 -3 -5 8 -9 24 -9 18 -1 27 2 23 10 -3 6 1 3 9 -6 11 -14 16 -15
26 -5 10 9 11 8 5 -7 -5 -13 -4 -17 4 -12 15 9 16 -6 1 -21 -8 -8 -7 -13 2
-18 8 -5 10 -4 5 3 -4 7 -1 12 9 12 10 0 14 5 9 13 -5 9 -4 9 6 0 7 -6 19 -9
28 -6 10 4 13 2 8 -5 -4 -7 -1 -12 8 -12 9 0 16 -7 16 -16 0 -8 5 -12 10 -9 6
3 10 -1 10 -10 0 -10 5 -13 12 -9 8 5 9 2 5 -10 -8 -20 19 -34 36 -17 6 6 16
11 21 11 6 0 4 -5 -4 -10 -12 -7 -8 -10 15 -11 17 0 25 -3 18 -5 -7 -3 -9 -12
-6 -20 4 -12 8 -12 21 -2 13 11 14 11 8 0 -6 -10 -3 -13 10 -12 33 4 45 0 39
-10 -3 -5 1 -10 10 -10 9 0 13 -4 10 -10 -5 -8 49 -16 78 -11 5 1 6 -3 2 -9
-3 -6 -11 -7 -17 -4 -5 4 -2 -5 7 -20 20 -31 30 -35 15 -6 -7 14 -7 20 0 20 5
0 10 -4 10 -9 0 -5 6 -16 13 -23 7 -7 19 -22 26 -33 12 -19 12 -19 6 -1 -6 19
-5 19 15 1 11 -10 23 -15 27 -12 3 4 0 7 -7 7 -7 0 -11 2 -8 5 8 8 38 -6 38
-17 0 -5 7 -17 16 -25 13 -14 17 -14 26 -2 7 11 11 11 15 2 2 -7 14 -13 25
-13 18 0 19 -2 7 -17 -10 -11 -10 -14 -1 -9 10 6 16 -3 14 -24 0 -3 9 -7 21
-7 20 -2 20 -1 5 8 -10 6 -18 14 -18 19 0 6 9 2 19 -7 11 -9 17 -22 14 -29 -3
-8 -1 -14 5 -14 6 0 13 6 15 13 4 10 6 10 6 0 1 -16 31 -17 31 -1 0 6 7 3 15
-8 12 -17 12 -20 -2 -31 -21 -16 -9 -17 19 -2 15 8 19 8 14 0 -7 -11 4 -15 36
-12 22 3 34 -19 17 -30 -8 -5 -9 -9 -3 -9 5 0 16 6 23 13 11 10 13 10 7 0 -4
-7 -2 -13 4 -13 6 0 8 -4 5 -10 -3 -6 1 -7 9 -4 9 3 13 11 9 18 -4 6 0 6 9 -2
13 -10 17 -10 20 0 3 8 7 6 11 -6 4 -10 3 -15 -3 -11 -6 3 -10 -1 -10 -10 0
-9 4 -14 9 -11 5 3 11 -1 15 -9 3 -8 11 -15 18 -15 9 0 8 3 -2 10 -9 6 -10 10
-3 10 17 0 28 -21 15 -29 -7 -4 -3 -12 10 -20 19 -12 20 -11 14 4 -5 14 -4 16
7 7 8 -7 17 -9 20 -5 4 3 7 1 7 -5 0 -7 6 -12 14 -12 8 0 16 -7 19 -14 4 -10
1 -13 -7 -10 -8 3 -17 0 -22 -7 -5 -8 -3 -10 6 -4 9 5 11 4 6 -4 -6 -8 -11 -9
-20 -1 -16 13 -70 -26 -60 -42 4 -7 2 -8 -5 -4 -6 4 -9 12 -6 17 4 5 3 9 0 9
-3 0 -12 -15 -20 -32 -8 -18 -14 -27 -15 -20 0 7 -5 10 -10 7 -6 -4 -8 -10 -5
-15 3 -5 0 -12 -6 -16 -8 -4 -9 -3 -5 4 4 7 2 12 -4 12 -6 0 -8 6 -5 13 4 6 0
4 -8 -5 -16 -20 -32 -25 -21 -6 5 7 3 8 -5 4 -7 -5 -10 -10 -7 -13 3 -3 1 -14
-5 -24 -7 -15 -14 -17 -34 -9 -21 8 -25 6 -26 -8 0 -10 -3 -12 -6 -4 -2 6 -9
10 -13 7 -5 -3 -6 -13 -3 -22 4 -11 3 -14 -5 -9 -7 4 -12 2 -12 -5 0 -10 -3
-10 -11 -2 -16 16 -73 -13 -65 -32 3 -10 0 -12 -11 -8 -11 4 -14 2 -9 -5 4 -7
2 -13 -3 -13 -6 -1 -15 -2 -20 -3 -5 0 -13 -5 -18 -10 -5 -5 -3 -6 5 -2 6 4
12 2 12 -4 0 -6 5 -8 12 -4 6 4 8 3 5 -4 -8 -11 -25 -11 -44 1 -8 5 -13 3 -13
-4 0 -7 -3 -10 -6 -6 -3 3 -16 -5 -29 -19 -24 -25 -41 -32 -29 -11 6 10 4 10
-7 0 -7 -7 -23 -13 -36 -13 -17 0 -21 -4 -16 -17 5 -12 3 -14 -7 -8 -10 6 -12
4 -7 -7 5 -14 1 -15 -24 -8 -30 9 -33 7 -29 -25 l2 -20 -16 20 -16 20 7 -20
c3 -11 3 -17 -2 -13 -4 4 -18 -5 -30 -20 -20 -24 -74 -44 -60 -22 3 4 -4 6
-15 3 -16 -4 -18 -8 -9 -19 10 -12 9 -13 -5 -8 -11 4 -19 -1 -25 -17 -5 -13
-10 -18 -10 -10 -1 8 -4 11 -8 8 -3 -4 -12 -2 -20 5 -11 9 -12 7 -7 -7 6 -15
5 -16 -17 -5 -22 12 -23 12 -11 -3 17 -20 6 -40 -19 -34 -10 3 -18 2 -17 -2 2
-19 -3 -31 -12 -26 -6 3 -7 -1 -4 -9 7 -18 -7 -21 -23 -5 -7 7 -17 3 -32 -17
-11 -15 -21 -23 -21 -19 0 4 -7 1 -16 -6 -9 -7 -28 -13 -42 -14 -18 0 -26 -5
-24 -14 2 -9 -4 -12 -18 -8 -18 4 -19 3 -9 -9 6 -8 9 -17 5 -21 -3 -3 -6 -1
-6 6 0 7 -6 11 -14 8 -7 -3 -19 0 -26 6 -10 10 -12 7 -7 -11 5 -20 3 -22 -11
-10 -12 10 -14 10 -8 1 5 -9 1 -13 -11 -13 -15 0 -16 -2 -3 -10 8 -5 12 -10 8
-11 -5 -1 -12 -3 -18 -4 -5 -1 -13 -3 -16 -4 -4 0 -1 -7 5 -15 9 -11 4 -12
-29 -6 -22 4 -37 3 -34 -1 3 -5 0 -9 -6 -9 -6 0 -8 -5 -4 -12 5 -9 2 -8 -9 1
-15 12 -17 12 -12 -2 6 -15 -8 -30 -33 -33 -6 -1 -9 3 -5 9 4 7 0 8 -11 4 -10
-4 -20 -7 -22 -7 -3 0 -3 -4 1 -9 7 -12 -29 -33 -39 -24 -3 3 -6 2 -6 -4 0 -6
-11 -14 -25 -17 -15 -4 -25 -14 -25 -24 0 -15 -2 -15 -10 -2 -8 13 -10 12 -10
-2 0 -10 -5 -18 -11 -18 -5 0 -7 6 -3 13 4 6 1 5 -7 -3 -8 -8 -21 -20 -29 -28
-13 -11 -11 -11 10 -2 22 10 23 10 8 -3 -10 -8 -14 -18 -10 -23 4 -4 -2 -2
-12 6 -11 8 -21 14 -23 12 -3 -2 -8 0 -11 4 -4 4 -1 4 7 -1 10 -6 12 -4 7 4
-6 9 -11 9 -22 0 -17 -14 -18 -22 -1 -14 6 4 4 0 -6 -8 -10 -9 -18 -18 -17
-22 1 -4 -2 -10 -6 -13 -4 -4 -4 -1 0 6 4 6 2 12 -3 12 -6 0 -11 -5 -11 -12 0
-6 -10 -3 -22 8 -12 10 -18 13 -14 6 4 -7 -5 -25 -25 -45 -18 -17 -29 -25 -25
-17 7 12 6 13 -4 3 -11 -10 -16 -9 -25 3 -9 13 -11 13 -11 -5 0 -11 4 -17 8
-15 4 3 8 0 8 -7 0 -6 -8 -9 -20 -6 -11 3 -18 1 -15 -3 3 -5 1 -11 -5 -15 -5
-3 -10 -1 -10 5 0 6 -5 8 -10 5 -6 -4 -8 -10 -5 -15 3 -5 0 -12 -6 -16 -8 -5
-9 -3 -4 6 6 9 4 11 -4 6 -7 -5 -10 -14 -8 -20 3 -7 -1 -13 -9 -13 -7 0 -11 4
-9 8 3 4 -2 9 -10 12 -9 4 -12 1 -9 -8 4 -9 -2 -13 -20 -11 -14 2 -23 0 -21
-5 5 -8 -34 -25 -48 -21 -5 1 -6 -2 -2 -8 9 -14 -18 -13 -35 3 -8 6 -7 3 3 -9
14 -17 15 -23 5 -31 -7 -6 -21 -9 -30 -8 -18 3 -20 -14 -3 -28 6 -4 1 -7 -10
-5 -13 2 -19 -2 -17 -11 2 -11 -2 -10 -22 3 -30 19 -36 20 -36 5 0 -5 5 -7 10
-4 6 3 10 1 10 -6 0 -6 -8 -9 -20 -6 -18 5 -25 -6 -22 -34 1 -4 -7 -5 -18 -2
-13 3 -32 -6 -56 -26 -35 -31 -37 -32 -55 -15 -18 16 -19 17 -13 1 5 -13 2
-16 -10 -11 -12 5 -15 2 -9 -12 4 -12 3 -15 -5 -10 -8 4 -12 1 -12 -10 0 -10
-3 -14 -7 -11 -3 4 -11 -1 -18 -10 -6 -8 -25 -16 -41 -17 -16 -1 -40 -10 -54
-20 -14 -10 -18 -16 -9 -13 9 3 16 -1 16 -8 0 -8 -7 -11 -15 -7 -10 3 -13 1
-8 -6 5 -8 2 -10 -8 -6 -9 3 -13 11 -10 16 4 6 -6 2 -22 -8 -26 -17 -28 -17
-15 -1 7 9 9 17 3 17 -12 0 -27 -31 -31 -62 -1 -9 -4 -8 -11 2 -8 13 -10 12
-10 -4 0 -19 -1 -19 -13 -2 -12 16 -14 17 -27 1 -10 -13 -11 -15 0 -13 7 2 14
-2 17 -9 4 -12 -14 -12 -34 0 -9 5 -11 3 -7 -6 3 -8 0 -18 -7 -23 -8 -5 -10
-3 -4 6 5 8 3 11 -6 8 -8 -3 -14 -14 -13 -25 1 -11 -5 -20 -12 -20 -7 0 -11 3
-9 7 2 4 -5 6 -16 5 -11 -1 -24 -7 -29 -14 -6 -11 -9 -11 -13 0 -4 10 -6 9 -7
-3 -2 -10 -3 -22 -4 -28 0 -5 -3 -9 -6 -7 -9 4 -38 -27 -33 -35 2 -5 1 -8 -4
-9 -4 0 -23 -2 -41 -3 -18 -1 -38 -8 -45 -16 -10 -10 -9 -11 3 -5 13 8 13 7 1
-8 -11 -14 -16 -15 -29 -5 -13 12 -14 10 -3 -11 8 -15 9 -21 2 -17 -6 4 -11 2
-11 -4 0 -6 -5 -8 -12 -4 -8 5 -9 2 -4 -11 5 -14 4 -16 -8 -6 -11 9 -15 8 -19
-3 -3 -8 -1 -17 6 -20 7 -4 2 -4 -10 -2 -13 2 -29 -4 -40 -17 -10 -11 -12 -17
-5 -13 18 11 15 -9 -5 -25 -11 -10 -14 -10 -9 -1 4 7 2 12 -5 12 -6 0 -9 -8
-6 -19 3 -12 -1 -18 -12 -17 -9 1 -15 -6 -15 -16 1 -10 -2 -16 -6 -13 -14 9
-39 -6 -34 -19 3 -7 -3 -19 -13 -27 -16 -12 -17 -12 -6 2 10 13 10 16 -2 16
-8 0 -13 -2 -10 -5 2 -3 0 -13 -6 -24 -7 -13 -7 -23 0 -32 14 -17 -12 -41 -34
-32 -11 4 -14 2 -8 -7 12 -20 12 -34 -3 -34 -7 0 -11 5 -8 11 3 6 -1 4 -8 -4
-8 -8 -20 -21 -28 -28 -13 -11 -13 -12 1 -7 10 4 20 1 25 -6 4 -8 3 -10 -4 -5
-7 4 -12 2 -12 -4 0 -6 -6 -8 -12 -4 -10 6 -10 4 0 -7 17 -19 15 -30 -5 -22
-13 5 -15 2 -10 -12 6 -14 5 -15 -6 -7 -10 8 -13 6 -14 -9 -1 -11 2 -17 7 -14
6 3 7 -1 4 -9 -3 -9 -11 -13 -18 -9 -7 5 -7 2 1 -8 7 -8 8 -20 4 -28 -6 -9
-11 -10 -15 -2 -9 14 -26 14 -26 0 0 -5 5 -7 12 -3 8 5 9 2 4 -12 -5 -10 -9
-24 -9 -31 0 -6 -7 -9 -16 -6 -13 4 -12 1 2 -10 14 -11 15 -16 5 -20 -8 -3 -9
-6 -1 -6 15 -1 5 -38 -14 -45 -9 -4 -12 -2 -7 7 4 6 -2 3 -14 -7 -22 -19 -30
-32 -13 -22 5 3 11 -10 13 -29 3 -23 0 -31 -7 -25 -6 5 -10 -3 -10 -25 0 -18
3 -31 7 -29 5 3 6 9 3 14 -3 5 -2 11 3 14 4 2 8 -6 8 -20 0 -13 -4 -24 -8 -24
-5 0 -4 -10 3 -21 7 -13 7 -19 1 -15 -6 3 -13 2 -17 -4 -3 -5 -1 -10 4 -10 6
0 11 -5 11 -11 0 -5 -4 -7 -10 -4 -25 15 -59 -40 -37 -61 4 -4 1 -14 -6 -22
-10 -13 -9 -15 6 -9 9 3 17 2 17 -3 0 -6 -8 -10 -17 -10 -15 0 -16 -2 -3 -10
13 -9 13 -11 0 -20 -13 -9 -13 -10 0 -10 13 0 13 -1 0 -10 -13 -8 -13 -10 0
-10 10 0 11 -3 3 -11 -13 -13 -5 -42 9 -33 6 4 5 10 -3 15 -10 6 -10 9 -2 9
19 0 24 -17 8 -30 -7 -6 -11 -19 -8 -27 4 -10 2 -14 -4 -10 -12 8 -12 -11 0
-30 5 -8 3 -13 -5 -14 -7 0 -2 -5 11 -10 l24 -9 -23 -25 c-20 -21 -21 -25 -6
-25 9 0 14 -4 11 -10 -3 -6 1 -10 10 -10 9 0 13 -4 10 -10 -3 -5 -1 -10 6 -10
6 0 9 -8 6 -19 -2 -10 0 -26 6 -36 6 -12 6 -16 -1 -11 -6 3 -13 2 -17 -4 -3
-5 -1 -10 4 -10 15 0 14 -43 -1 -59 -8 -9 -8 -11 -2 -8 18 10 25 -20 9 -36
-12 -13 -10 -14 12 -14 14 -1 29 -6 33 -13 9 -15 1 -52 -14 -62 -7 -5 -3 -8 9
-8 17 0 17 -2 5 -10 -12 -7 -12 -10 -1 -10 8 0 11 -6 7 -16 -3 -8 -2 -12 4 -9
6 3 10 1 10 -6 0 -7 3 -9 7 -6 3 4 12 2 19 -4 15 -12 7 -42 -8 -32 -6 3 -3 -8
7 -25 16 -27 21 -29 39 -20 19 10 20 10 7 -5 -7 -10 -10 -17 -5 -17 5 0 2 -5
-6 -10 -11 -7 -12 -10 -2 -10 9 0 11 -7 7 -20 -4 -12 -2 -20 5 -20 6 0 9 4 6
8 -3 5 1 9 8 9 8 0 12 -7 8 -15 -3 -10 -1 -13 6 -8 8 5 10 1 5 -11 -3 -10 -3
-15 2 -11 9 8 35 -15 35 -32 0 -6 5 -8 10 -5 6 3 10 2 10 -4 0 -5 -5 -13 -10
-16 -6 -4 -4 -12 5 -21 8 -9 12 -21 8 -27 -4 -7 2 -5 12 3 11 9 16 10 11 3 -4
-7 -2 -13 3 -13 6 0 11 -7 11 -16 0 -10 5 -14 16 -10 8 3 12 2 9 -4 -6 -10 24
-45 44 -51 7 -3 13 -14 14 -26 0 -12 5 -19 9 -17 5 3 17 2 29 -1 16 -5 18 -10
8 -21 -12 -14 -2 -18 41 -15 10 0 11 -1 3 -5 -19 -8 3 -44 27 -44 11 0 20 -4
20 -10 0 -5 -6 -8 -12 -6 -7 1 -10 1 -5 -1 4 -3 5 -9 2 -14 -4 -5 1 -6 10 -2
10 3 21 0 26 -8 6 -10 9 -11 9 -1 0 7 14 -2 31 -20 17 -18 28 -27 24 -20 -3 6
-1 12 4 12 6 0 11 -5 11 -11 0 -5 5 -7 12 -3 8 5 9 2 5 -9 -4 -11 -1 -17 7
-17 8 0 17 -8 21 -17 6 -17 7 -17 21 1 14 20 14 20 14 0 0 -16 2 -17 10 -4 9
13 10 13 10 0 0 -18 37 -43 50 -35 6 3 18 1 27 -4 10 -6 14 -11 10 -11 -4 0
-2 -6 5 -14 7 -7 19 -11 27 -8 8 3 12 1 8 -4 -3 -6 3 -11 14 -11 11 -1 17 2
14 7 -3 6 1 7 9 4 9 -3 12 -12 9 -21 -5 -12 -3 -14 7 -8 10 6 12 4 7 -8 -3 -8
0 -18 8 -21 10 -3 12 0 8 12 -6 15 -4 15 14 -1 21 -18 22 -18 32 0 10 17 10
17 11 0 0 -10 5 -15 10 -12 6 4 8 11 5 16 -3 5 1 6 9 3 9 -3 16 -10 16 -15 0
-6 9 -19 19 -30 18 -20 19 -20 30 -2 8 15 10 15 11 2 0 -9 7 -16 15 -16 8 0
12 4 10 8 -8 12 24 19 32 6 9 -13 56 -20 48 -7 -8 13 24 20 32 7 9 -14 56 -19
47 -6 -3 5 2 9 11 9 9 0 14 -4 11 -9 -4 -5 2 -8 11 -6 10 2 22 4 26 4 5 1 5 5
2 11 -4 7 2 7 18 1 14 -6 28 -7 33 -3 4 4 4 1 -1 -6 -6 -11 -3 -12 14 -3 16 9
21 9 21 -1 0 -10 3 -9 9 1 8 12 12 12 24 2 11 -8 17 -9 22 -1 5 8 11 7 23 -2
13 -11 15 -11 10 3 -5 13 -2 16 13 12 10 -3 17 -9 14 -13 -3 -5 3 -7 12 -5 10
2 22 4 26 4 5 1 5 5 2 11 -3 5 0 7 9 4 8 -3 12 -13 10 -22 -5 -15 -4 -15 6 1
11 17 36 25 26 8 -7 -11 21 -8 31 4 4 4 2 5 -6 0 -10 -6 -12 -4 -6 5 6 10 11
9 21 -4 8 -12 14 -14 19 -6 6 9 10 9 16 -1 7 -11 9 -10 9 4 0 9 7 17 15 17 9
0 12 6 9 15 -4 8 -2 15 4 15 6 0 13 -6 15 -12 4 -10 6 -10 6 0 1 6 8 12 17 12
8 0 13 -4 10 -8 -2 -4 4 -8 14 -8 13 0 16 4 10 12 -7 7 -1 10 20 9 29 -2 59
19 46 32 -3 3 -6 1 -6 -5 0 -7 -5 -12 -12 -12 -9 0 -9 3 0 12 13 13 54 19 46
6 -3 -4 0 -8 5 -8 6 0 11 4 11 10 0 5 6 7 14 4 10 -4 14 1 12 18 -2 20 2 23
29 22 18 -1 37 -4 43 -8 8 -5 10 -1 5 10 -5 12 -3 15 6 9 10 -6 11 -3 2 13 -9
17 -8 19 8 15 10 -3 22 0 25 6 4 6 13 11 19 11 7 0 6 -4 -3 -10 -12 -8 -12
-10 5 -10 11 0 27 5 35 11 12 9 12 10 -4 5 -15 -5 -17 -4 -8 7 7 8 8 18 4 23
-4 4 2 2 12 -6 11 -8 17 -10 13 -3 -4 6 -3 14 3 18 5 3 10 1 10 -4 0 -6 5 -11
11 -11 5 0 8 4 4 9 -3 6 6 8 20 5 19 -3 23 -1 19 11 -4 8 -1 15 4 15 6 0 13 8
15 17 4 17 5 17 6 0 1 -17 3 -17 31 3 17 12 27 26 24 32 -5 7 -2 8 6 3 10 -6
7 -14 -14 -32 -15 -12 -24 -23 -20 -23 3 0 22 13 41 30 18 16 29 30 24 30 -5
0 0 11 12 24 21 23 23 24 41 8 18 -16 19 -16 13 0 -4 13 -2 15 10 11 13 -5 15
-2 10 12 -7 16 -5 16 10 4 11 -9 14 -10 9 -1 -7 11 -3 14 27 16 6 1 18 8 25
16 8 8 11 9 7 3 -9 -19 10 -16 26 4 8 9 9 14 3 10 -6 -3 -11 0 -11 8 0 8 4 12
9 9 5 -3 16 0 25 8 14 11 16 11 8 -1 -6 -11 -4 -13 7 -8 9 3 20 1 26 -5 7 -7
9 -1 8 20 -2 27 0 29 17 20 14 -7 18 -7 12 2 -4 7 -1 10 8 8 9 -2 16 2 16 7 0
6 -8 8 -17 7 -11 -3 -7 4 10 18 17 13 33 18 40 13 19 -11 39 -13 32 -2 -3 5 2
9 12 9 13 0 14 3 5 13 -15 19 -1 30 17 14 10 -7 13 -8 9 -1 -4 7 3 14 18 17
14 2 28 0 32 -6 4 -6 1 -7 -7 -2 -9 5 -11 4 -6 -4 4 -6 12 -9 17 -5 5 3 7 10
4 15 -4 5 -1 9 4 9 6 0 11 7 11 16 0 10 6 14 15 10 8 -3 15 -1 15 4 0 5 7 7
16 3 8 -3 25 4 38 16 12 12 26 18 31 14 4 -5 5 -2 1 5 -5 8 3 23 20 40 15 15
24 21 20 14 -6 -10 -1 -13 20 -10 23 2 29 8 28 26 -1 16 2 20 11 12 8 -6 15
-6 23 2 9 9 12 9 12 -3 0 -11 2 -11 9 -1 4 8 12 13 17 12 5 0 10 9 12 20 2 13
10 19 20 18 12 -2 17 4 16 18 0 16 5 20 24 18 18 -2 22 1 17 14 -5 14 -4 14
12 0 17 -16 20 -15 42 8 19 20 20 23 5 18 -17 -6 -17 -5 1 9 14 11 25 12 37 6
10 -5 18 -7 18 -3 0 3 8 0 18 -7 15 -13 16 -12 4 3 -11 13 -11 21 -2 35 11 17
11 17 6 -1 -6 -16 -4 -17 9 -6 8 7 12 17 8 24 -4 6 5 3 19 -6 26 -17 26 -17
43 17 9 19 18 35 21 35 3 0 2 -5 -1 -10 -3 -6 2 -10 11 -10 10 0 15 3 11 6 -3
4 0 13 8 21 20 20 19 34 -2 27 -15 -5 -15 -4 -3 5 10 7 19 6 30 -4 10 -9 21
-11 30 -5 8 5 19 6 25 2 5 -3 4 2 -4 12 -8 9 -10 16 -5 15 22 -4 34 2 34 19 0
13 2 14 9 3 6 -10 13 -10 28 -2 11 5 23 8 25 5 3 -3 5 6 4 18 -1 20 4 23 34
23 19 0 39 -4 43 -10 5 -5 7 4 5 22 -3 18 -1 30 3 27 12 -7 39 8 32 19 -3 6
-1 7 5 3 10 -6 16 3 14 24 0 3 18 4 40 1 35 -3 40 -1 35 13 -4 10 -1 16 8 16
8 0 15 4 15 9 0 5 9 7 20 4 11 -3 20 -10 20 -15 0 -5 7 -3 15 6 21 20 19 31
-2 15 -15 -11 -14 -10 1 9 11 12 25 22 32 22 7 0 20 10 28 22 9 12 16 18 16
12 0 -5 -5 -15 -11 -21 -9 -9 -7 -12 9 -10 11 0 18 5 16 9 -3 4 -1 8 5 8 5 0
19 16 32 36 15 26 27 34 40 31 11 -3 17 -1 13 4 -3 5 -1 9 5 9 5 0 11 -5 13
-12 3 -8 9 -8 24 1 14 9 15 11 2 7 -12 -3 -15 -1 -12 9 3 8 12 11 20 8 10 -4
12 0 8 13 -4 11 -4 16 1 12 4 -4 15 -2 23 5 11 8 14 8 9 0 -4 -6 -3 -14 3 -18
5 -3 10 -1 10 6 0 6 8 9 20 6 16 -4 18 -2 10 13 -15 28 -12 36 5 14 15 -19 15
-19 8 0 -5 15 -3 18 9 14 24 -10 39 11 26 36 -8 17 -8 19 2 9 11 -10 16 -9 27
5 8 9 12 12 9 6 -6 -12 23 -29 32 -19 3 3 2 5 -2 5 -5 0 0 8 11 18 10 9 12 13
4 7 -12 -9 -12 -7 0 12 7 12 16 19 19 14 3 -4 13 -10 23 -14 12 -4 17 -1 18
11 0 10 3 12 6 5 9 -23 23 -13 19 13 -4 21 -3 24 10 14 8 -8 14 -8 14 -2 0 5
7 13 16 16 8 3 12 2 9 -4 -3 -6 3 -10 14 -10 12 0 21 5 21 11 0 5 -6 7 -12 3
-9 -5 -8 -2 1 10 8 9 20 15 27 12 8 -3 13 -1 11 4 -1 5 7 16 18 25 11 9 13 13
5 9 -10 -5 -9 0 4 14 22 25 28 28 20 9 -3 -8 2 -14 11 -14 8 0 15 4 15 9 0 5
5 6 10 3 6 -3 10 -1 10 5 0 6 5 8 13 4 8 -5 7 -2 -2 9 -12 15 -12 17 4 11 12
-5 16 -4 11 4 -11 18 11 23 28 7 13 -14 16 -13 26 5 6 11 18 20 26 20 10 0 14
6 11 15 -5 11 -1 12 18 5 17 -7 25 -5 29 6 3 8 13 14 23 14 15 0 16 2 3 10
-13 8 -12 10 5 11 11 1 27 1 35 0 10 0 11 1 3 5 -16 7 -17 31 -1 40 7 4 8 3 4
-4 -11 -19 5 -14 21 6 8 9 12 12 9 6 -3 -7 1 -14 9 -18 8 -3 14 -2 14 2 -3 19
2 25 11 12 5 -8 12 -11 16 -7 4 3 1 14 -7 24 -9 11 -10 14 -1 9 8 -5 12 -1 13
11 0 10 3 13 5 6 4 -9 13 -9 30 -3 16 7 23 7 19 0 -3 -6 1 -7 10 -4 9 4 14 13
11 20 -3 7 0 17 7 21 12 7 17 9 36 12 5 0 12 9 15 19 3 9 17 18 31 18 16 1 23
-2 19 -10 -3 -6 4 0 15 14 11 14 18 31 15 39 -3 10 2 9 16 -4 20 -19 21 -19
15 1 -7 19 -6 19 9 0 9 -11 16 -14 16 -8 0 7 7 12 15 12 12 0 13 4 6 18 -8 14
-5 18 12 19 12 1 25 -3 29 -10 5 -8 8 -6 8 6 0 10 4 15 10 12 12 -8 61 40 52
51 -4 4 1 4 12 0 14 -5 17 -3 12 10 -5 13 0 15 28 11 29 -4 33 -2 28 12 -5 14
-3 14 11 3 14 -12 16 -11 12 7 -4 23 10 37 20 21 5 -8 13 -6 26 6 17 16 19 16
25 0 5 -14 9 -15 15 -4 14 21 11 50 -3 42 -7 -4 -9 -3 -5 1 12 13 37 15 37 2
0 -8 4 -7 12 1 16 16 31 15 22 0 -6 -10 -5 -10 8 -1 8 7 19 9 24 5 4 -4 3 0
-4 9 -10 13 -8 20 11 38 18 16 24 18 24 7 0 -8 -5 -12 -10 -9 -6 3 -7 1 -3 -6
12 -19 24 -3 22 29 -2 29 -2 29 18 12 11 -9 16 -12 13 -6 -4 7 0 15 9 18 10 4
13 2 8 -6 -4 -7 -3 -8 5 -4 6 4 20 2 29 -6 15 -11 16 -11 6 2 -9 13 -10 22 -5
46 0 4 9 0 18 -7 14 -12 16 -12 8 0 -6 11 -2 13 18 9 15 -3 24 -2 22 3 -3 4 4
10 15 14 11 3 20 11 20 16 0 6 -5 7 -12 3 -7 -4 -8 -3 -4 4 4 7 17 9 31 6 12
-3 26 -1 30 5 3 6 11 9 16 6 5 -4 9 1 9 10 0 11 5 15 16 11 10 -4 13 -2 8 6
-5 8 -2 9 11 4 16 -6 16 -4 4 11 -9 11 -10 14 -1 9 7 -4 12 -2 12 4 0 6 4 8
10 5 5 -3 7 0 4 8 -3 8 2 14 11 14 8 0 15 -3 15 -7 0 -3 9 -6 19 -6 11 0 18 3
15 7 -2 4 -1 9 3 12 5 2 2 2 -5 0 -7 -1 -10 2 -7 7 3 6 13 10 21 10 9 0 12 5
8 11 -4 7 1 7 16 -1 20 -11 22 -10 17 4 -5 12 -3 15 6 9 21 -13 36 -12 30 3
-3 9 2 14 13 14 16 0 17 2 4 10 -12 8 -12 10 5 10 11 0 27 5 35 11 13 10 13
10 -1 6 -9 -3 -16 1 -16 8 0 8 9 11 24 9 17 -3 22 -1 18 7 -5 8 0 7 15 -1 20
-11 22 -10 16 5 -5 14 -4 16 8 6 11 -9 15 -8 20 5 3 9 4 20 1 24 -3 5 8 5 25
0 18 -5 32 -5 36 1 3 6 13 8 21 5 9 -4 11 -2 6 7 -15 23 -12 37 5 28 22 -11
44 -3 36 12 -5 8 -2 8 7 0 17 -17 26 -16 32 1 4 11 1 13 -11 10 -9 -3 -7 1 6
8 12 8 19 17 15 22 -4 4 1 4 11 0 12 -5 17 -2 14 7 -2 8 1 15 6 16 5 1 13 7
17 15 7 10 9 10 9 -2 0 -13 1 -13 10 0 9 13 11 13 20 0 6 -10 10 -11 10 -2 0
6 5 12 11 12 5 0 7 -5 3 -12 -4 -7 -3 -8 5 -4 9 6 9 11 -1 24 -11 14 -10 15 6
9 16 -6 17 -5 6 8 -11 13 -10 14 5 9 12 -5 16 -4 12 3 -4 7 0 10 9 9 8 -1 19
-8 23 -15 6 -9 10 -7 14 8 3 12 13 21 22 21 11 0 15 5 12 15 -5 11 -1 12 18 5
14 -5 25 -7 25 -4 0 4 8 0 18 -7 15 -13 16 -12 3 4 -9 11 -10 17 -2 17 6 0 10
6 9 13 -2 7 5 11 16 9 11 -2 15 1 11 7 -3 6 -2 11 4 11 6 0 8 7 5 15 -4 10 0
15 11 15 10 0 13 -5 9 -12 -4 -7 -3 -8 5 -4 6 4 9 11 6 16 -3 5 -1 11 5 15 5
3 10 1 10 -4 0 -6 9 -10 20 -8 22 4 40 17 22 17 -6 0 -9 7 -6 15 4 8 10 12 15
9 6 -3 17 0 26 8 12 9 15 9 9 1 -4 -7 -3 -13 3 -13 5 0 12 6 14 13 4 9 6 9 6
-1 1 -7 5 -11 11 -7 5 3 7 12 4 19 -3 8 9 19 33 29 21 9 32 16 25 16 -7 1 -10
6 -7 11 4 6 11 8 16 4 5 -3 8 0 7 7 -2 7 4 13 12 14 8 0 14 8 12 17 -2 13 3
16 19 13 17 -3 20 -2 11 7 -19 19 6 42 26 26 11 -9 14 -9 9 -1 -9 14 32 55 46
46 6 -3 7 -1 3 6 -6 9 -11 9 -21 1 -10 -8 -15 -8 -21 1 -4 7 -3 9 4 5 6 -3 13
-2 17 3 3 5 15 8 26 6 16 -3 18 -1 10 8 -7 9 -7 17 1 27 8 12 9 11 4 -5 -6
-19 -5 -19 8 -2 7 9 19 17 27 17 11 0 11 2 -1 10 -13 8 -13 10 1 10 9 0 22 7
29 15 7 8 17 12 24 9 6 -3 2 2 -8 10 -20 16 -20 16 0 32 10 8 14 13 7 10 -6
-4 -15 -1 -19 5 -4 7 -3 9 3 6 5 -3 24 7 42 23 18 17 36 30 42 30 5 0 9 5 9
11 0 5 -6 7 -12 3 -7 -4 -4 3 7 16 11 13 15 20 8 17 -8 -5 -11 0 -10 13 1 13
6 19 15 15 7 -2 10 -1 7 4 -3 5 5 17 17 25 12 9 17 16 10 16 -6 0 -12 5 -12
11 0 5 6 7 13 3 9 -6 9 -5 0 7 -8 10 -9 19 -1 29 8 13 9 12 4 -2 -3 -12 -1
-15 9 -11 8 3 12 10 8 16 -4 6 0 8 9 5 8 -4 15 0 15 8 0 7 -3 11 -7 9 -4 -2
-7 2 -7 10 0 8 4 12 9 9 4 -3 8 -1 8 5 0 5 -4 13 -10 16 -13 8 -13 25 1 25 5
0 7 -5 3 -12 -4 -6 -3 -8 4 -5 5 4 8 16 5 27 -3 11 -10 17 -17 13 -6 -4 -5 1
3 10 10 13 17 14 27 6 10 -8 12 -6 9 10 -2 12 0 19 4 16 5 -3 12 2 15 11 3 8
2 13 -3 10 -5 -3 -12 1 -15 10 -3 8 -2 12 3 9 5 -3 12 -1 16 5 3 5 -2 10 -11
10 -17 0 -16 1 1 13 14 11 15 16 5 22 -9 6 -11 4 -5 -5 5 -9 4 -11 -4 -6 -9 6
-9 11 -1 21 7 8 9 24 5 37 -4 16 -3 19 3 9 11 -15 27 2 17 18 -3 6 5 8 17 6
22 -4 22 -4 4 10 -17 13 -17 15 -4 15 9 0 20 5 24 12 4 6 3 8 -4 4 -6 -3 -13
-2 -17 4 -3 5 0 10 7 11 7 0 4 4 -7 9 -19 8 -19 9 -1 9 20 1 20 1 0 17 -10 8
-13 13 -6 9 7 -4 12 0 12 10 0 10 5 13 12 9 7 -4 8 -3 4 5 -4 6 -11 9 -16 6
-5 -3 -11 -1 -15 5 -3 5 1 10 10 10 10 0 13 5 9 12 -13 20 -13 57 -2 64 8 5 9
1 5 -10 -4 -10 -3 -15 3 -11 15 9 12 19 -10 43 -17 18 -18 22 -5 22 10 0 13 5
9 12 -12 19 -14 58 -3 58 14 0 11 17 -7 34 -14 15 -14 16 2 16 14 0 15 2 3 17
-10 11 -10 14 -1 9 6 -4 12 -2 12 3 0 6 -7 11 -15 11 -8 0 -15 8 -15 18 0 15
2 15 11 2 9 -13 10 -13 6 0 -4 17 -28 21 -38 7 -4 -5 -10 -4 -13 2 -4 6 -2 11
4 11 7 0 9 8 5 20 -5 16 -3 19 12 13 13 -4 11 0 -6 14 -19 15 -21 22 -11 28 9
6 11 4 5 -5 -5 -8 -4 -11 2 -7 6 4 8 18 5 33 -3 20 -7 23 -14 12 -7 -10 -8 -8
-4 5 3 10 6 21 6 23 0 3 6 2 13 -2 6 -3 0 5 -15 20 -15 14 -31 26 -37 26 -10
0 -9 19 2 37 4 6 3 14 -3 18 -5 3 -10 12 -10 18 0 7 4 6 10 -3 8 -11 10 -7 8
17 -1 17 -6 29 -10 27 -5 -3 -5 -10 -2 -16 4 -6 -2 -6 -15 1 -22 12 -30 27 -8
16 6 -4 3 1 -7 9 -13 10 -15 16 -7 16 11 0 11 3 0 17 -12 15 -12 16 1 8 13 -7
13 -6 2 7 -10 13 -10 17 0 21 7 3 -2 4 -19 2 -29 -3 -32 -2 -23 15 16 30 12
35 -12 14 -13 -10 -17 -12 -10 -4 16 19 15 48 -2 66 -17 17 -30 19 -20 2 4 -7
3 -8 -5 -4 -9 6 -9 11 -1 21 8 9 6 14 -6 19 -9 3 -21 3 -26 -1 -6 -3 -9 -2 -6
3 3 5 2 18 -2 29 -5 13 -2 24 9 33 9 7 12 12 6 11 -26 -3 -46 2 -40 11 3 6 1
10 -5 10 -6 0 -8 5 -5 10 3 6 -1 10 -9 10 -9 0 -16 5 -16 11 0 6 -6 9 -14 6
-9 -4 -12 0 -9 12 2 10 -4 24 -13 32 -10 8 -15 9 -11 2 4 -6 3 -14 -3 -18 -5
-3 -10 3 -10 14 0 12 -4 21 -10 21 -5 0 -10 7 -10 16 0 8 -4 12 -10 9 -5 -3
-10 0 -10 7 0 11 -2 10 -9 0 -6 -10 -10 -9 -14 7 -3 12 -1 19 3 16 5 -3 11 -1
14 4 3 4 -2 8 -12 8 -35 0 -42 3 -42 19 0 8 -5 12 -10 9 -6 -4 -9 -1 -8 7 2 7
-3 12 -11 10 -12 -3 -12 -1 0 14 9 12 10 15 1 10 -7 -4 -15 -1 -18 8 -3 9 -10
16 -16 16 -5 0 -7 -4 -4 -9 5 -8 -15 -8 -34 -1 -3 1 -9 2 -13 1 -5 -1 -6 3 -3
8 4 5 -2 14 -11 20 -10 6 -14 11 -9 11 18 0 -29 29 -47 30 -11 0 -15 5 -11 11
4 7 -5 9 -30 6 -32 -4 -35 -3 -26 13 13 24 13 30 -1 30 -5 0 -7 -4 -4 -10 3
-5 -1 -10 -10 -10 -9 0 -13 5 -10 10 3 6 1 10 -5 10 -6 0 -9 3 -7 8 3 4 -5 16
-16 27 -11 11 -17 15 -13 8 3 -6 1 -15 -5 -19 -7 -4 -9 -3 -6 2 3 6 2 16 -4
24 -6 10 -9 11 -9 3 0 -7 -9 -13 -21 -13 -13 0 -19 5 -16 13 3 7 -2 22 -10 32
-15 20 -16 20 -9 1 7 -20 7 -20 -15 0 -12 10 -19 13 -15 7 10 -19 -4 -16 -27
5 -11 9 -17 11 -13 5 4 -7 5 -13 2 -13 -3 0 -12 12 -20 28 -8 15 -15 22 -16
17 0 -6 -11 -11 -24 -11 -14 0 -24 5 -23 11 1 5 -3 9 -9 8 -7 -1 -10 6 -7 20
3 16 2 18 -5 9 -7 -11 -10 -11 -16 3 -3 9 -10 13 -16 10 -5 -3 -7 0 -4 8 3 8
-3 20 -12 28 -10 8 -15 9 -11 2 4 -6 3 -14 -3 -18 -5 -3 -10 -2 -10 3 0 6 -7
12 -14 15 -11 4 -13 1 -10 -11 5 -16 4 -16 -9 0 -8 10 -16 17 -18 15 -2 -1 -1
2 3 7 12 15 10 26 -4 23 -7 -1 -12 4 -10 12 3 12 0 12 -12 1 -19 -15 -21 -24
-4 -14 7 5 8 3 3 -6 -6 -10 -16 -5 -39 21 -16 19 -33 34 -37 34 -4 0 -11 3
-15 8 -4 4 -15 0 -25 -9 -17 -15 -18 -15 -14 5 2 12 1 20 -3 17 -4 -2 -18 2
-32 10 l-25 14 30 -5 c28 -5 29 -5 6 5 -14 6 -31 8 -38 6 -10 -4 -11 -1 -3 13
10 20 -2 24 -27 8 -9 -6 -11 -3 -6 10 6 16 5 16 -10 5 -12 -10 -20 -11 -34 -2
-16 9 -15 10 6 4 21 -5 22 -4 10 9 -8 8 -17 13 -21 10 -5 -2 -8 1 -8 7 0 7 -7
10 -15 6 -8 -3 -15 -2 -15 3 0 5 -8 8 -17 7 -13 -1 -18 6 -17 21 0 16 -3 20
-11 13 -8 -7 -15 -2 -23 15 -8 17 -17 23 -32 20 -11 -2 -20 0 -20 6 0 5 -6 9
-14 9 -8 0 -17 6 -20 13 -3 6 -4 1 -1 -13 3 -14 2 -20 -1 -13 -3 7 -13 9 -22
6 -12 -3 -14 -2 -4 4 24 18 3 42 -34 38 -19 -1 -34 1 -34 7 0 5 -5 6 -11 2 -7
-4 -7 2 1 17 7 13 9 21 5 16 -5 -4 -18 1 -29 10 -13 11 -16 12 -9 3 9 -12 7
-15 -12 -15 -13 0 -21 3 -19 6 2 4 -5 17 -16 29 -11 13 -20 19 -20 14 0 -5 -5
-2 -10 6 -9 13 -11 13 -21 0 -10 -13 -10 -13 -6 0 10 28 14 45 10 38 -3 -5
-11 -8 -19 -8 -9 0 -13 4 -10 8 2 4 -5 9 -17 9 -17 2 -18 0 -7 -7 11 -7 10 -9
-7 -7 -12 0 -20 4 -18 8 3 3 -4 17 -15 29 -13 15 -20 18 -20 9 0 -11 -2 -11
-10 1 -5 8 -10 10 -10 3 0 -15 -27 -11 -43 7 -9 10 -9 11 1 6 6 -4 12 -2 12 3
0 6 -6 11 -12 11 -9 0 -8 4 2 10 8 5 10 10 5 10 -6 0 -17 -6 -24 -12 -11 -10
-13 -10 -7 0 4 7 2 12 -6 12 -8 0 -20 -6 -27 -12 -11 -10 -13 -10 -7 0 5 8 0
12 -16 13 -22 0 -22 1 -3 9 18 8 18 9 2 9 -11 1 -15 5 -11 13 5 8 0 9 -15 5
-18 -4 -20 -3 -11 8 10 12 7 13 -11 10 -17 -4 -20 -2 -11 7 7 7 12 17 12 22 0
6 -5 4 -10 -4 -6 -10 -10 -11 -10 -2 0 6 -5 12 -11 12 -5 0 -7 -5 -3 -11 5 -8
1 -8 -13 0 -11 6 -23 7 -27 4 -3 -3 -6 -1 -6 6 0 7 -5 9 -11 5 -8 -4 -8 -1 -1
13 9 15 8 20 -4 20 -7 0 -14 -5 -14 -11 0 -5 -6 -1 -14 9 -13 18 -13 18 -24
-1 -9 -14 -12 -15 -13 -4 -1 8 -1 21 0 29 2 7 -2 10 -8 6 -6 -3 -11 -1 -11 5
0 6 -4 9 -9 5 -5 -3 -12 4 -16 15 -3 11 -14 20 -23 20 -13 0 -13 -2 4 -14 10
-8 16 -18 11 -22 -4 -4 -7 -2 -7 5 0 7 -4 9 -10 6 -10 -6 -14 7 -10 35 1 12
-1 13 -11 3 -17 -17 -29 -16 -29 2 0 8 -9 20 -19 27 -11 6 -17 19 -14 27 4 14
3 14 -5 1 -6 -8 -8 -18 -6 -22 3 -4 0 -8 -5 -8 -6 0 -11 6 -11 13 0 8 -4 7
-10 -3 -9 -13 -14 -7 -11 12 0 5 -5 7 -12 5 -6 -1 -11 3 -10 10 2 7 -3 10 -11
7 -8 -3 -17 0 -22 7 -5 8 -3 10 7 4 8 -5 11 -4 6 0 -4 5 -16 9 -27 10 -16 1
-18 -1 -7 -13 10 -13 9 -14 -9 -4 -12 6 -25 8 -30 4 -5 -4 -2 1 5 11 12 15 11
17 -3 17 -9 0 -19 7 -23 16 -3 8 -12 13 -20 10 -8 -4 -11 -1 -8 5 4 6 -1 16
-11 24 -12 8 -21 10 -25 3 -4 -6 -12 -3 -22 6 -8 9 -21 16 -28 16 -7 0 -5 8 7
22 11 12 13 18 4 13 -22 -13 -60 -15 -60 -2 0 6 -7 2 -15 -9 -14 -18 -14 -17
-5 10 10 27 9 28 -6 15 -16 -13 -17 -12 -11 9 5 23 5 23 -14 6 -19 -17 -20
-17 -13 1 6 14 4 16 -7 9 -20 -12 -40 -14 -33 -3 3 5 0 9 -5 9 -6 0 -11 7 -11
17 0 9 -3 14 -6 10 -9 -8 -34 18 -34 36 0 8 -7 17 -15 21 -8 3 -14 2 -14 -2 3
-21 -3 -24 -14 -7 -11 14 -16 15 -22 5 -6 -9 -4 -11 5 -5 9 5 11 4 6 -4 -9
-14 -26 -5 -26 15 0 8 -5 14 -11 14 -8 0 -8 4 -1 13 8 9 5 12 -13 12 -13 0
-21 -3 -18 -7 8 -14 -15 -8 -30 7 -8 8 -18 11 -23 7 -5 -4 -3 0 4 9 10 14 10
18 -3 23 -9 3 -13 2 -10 -3 3 -5 1 -12 -5 -16 -5 -3 -10 0 -10 7 0 9 -12 13
-35 12 -32 -2 -34 0 -24 18 6 12 7 18 1 14 -5 -3 -15 1 -22 10 -7 8 -19 13
-25 10 -7 -2 -12 3 -11 12 1 10 -6 16 -16 16 -10 -1 -18 2 -18 8 0 5 -5 6 -10
3 -6 -4 -7 -12 -3 -18 5 -8 2 -8 -9 0 -8 7 -19 9 -23 5 -5 -4 -5 -1 -1 6 4 7
12 9 18 6 7 -5 8 -2 2 7 -5 8 -9 17 -9 21 0 3 -4 10 -9 15 -5 5 -6 3 -2 -4 4
-8 1 -13 -8 -13 -9 0 -16 8 -16 17 0 15 -2 15 -14 -2 -12 -16 -15 -17 -28 -4
-8 8 -17 22 -21 32 -3 9 -13 17 -21 17 -8 0 -18 5 -22 12 -4 6 -3 8 3 5 5 -3
10 0 10 7 0 7 -7 13 -16 12 -9 -1 -15 5 -13 14 3 12 1 13 -9 3 -18 -18 -49
-16 -49 3 0 10 -5 14 -15 10 -10 -4 -19 2 -25 17 -9 22 -9 22 -10 -3 -1 -16
-4 -19 -7 -10 -9 23 -37 47 -51 42 -8 -2 -10 2 -5 15 6 16 5 17 -11 4 -15 -13
-19 -13 -27 0 -6 10 -9 10 -9 2 0 -9 -6 -7 -18 5 -13 11 -16 21 -10 29 7 9 4
11 -11 8 -12 -2 -19 0 -16 5 3 5 1 11 -5 15 -6 4 -8 10 -6 14 3 4 -6 7 -19 7
-13 0 -22 -3 -20 -6 2 -4 -2 -7 -10 -7 -8 0 -12 4 -9 9 8 12 -10 10 -24 -4 -8
-8 -12 -9 -12 -1 0 6 5 13 11 15 16 5 0 35 -22 41 -10 3 -17 1 -14 -3 3 -5 1
-11 -5 -15 -5 -3 -10 -1 -10 6 0 9 -3 9 -14 0 -12 -10 -13 -8 -9 8 4 17 1 21
-16 21 -12 0 -19 5 -16 10 9 14 -8 12 -24 -2 -8 -8 -11 -8 -8 -2 4 7 -7 18
-26 28 -17 8 -26 16 -19 16 6 0 12 4 12 9 0 5 -9 7 -20 4 -15 -4 -20 0 -20 16
0 21 -12 24 -85 24 -19 -1 -19 0 0 13 17 12 17 14 2 14 -9 0 -17 8 -18 18 0
10 -3 12 -6 5 -2 -7 -11 -13 -19 -13 -8 0 -14 6 -15 13 0 6 -4 3 -9 -8 -7 -16
-9 -17 -9 -3 -1 9 -7 18 -13 21 -10 3 -10 7 -1 19 10 12 10 15 -2 15 -8 0 -12
-4 -9 -9 3 -4 0 -8 -5 -8 -6 0 -11 5 -11 11 0 8 -6 7 -17 -2 -11 -10 -14 -10
-9 -1 6 11 -5 17 -26 13 -5 0 -8 4 -8 9 0 6 7 10 16 8 10 -2 19 4 21 12 3 9 1
11 -4 5 -4 -5 -21 -10 -38 -10 -23 1 -31 6 -33 23 -2 12 -8 20 -13 17 -5 -4
-9 -1 -9 5 0 6 -8 10 -17 9 -32 -3 -54 1 -50 9 8 13 -18 29 -46 28 -18 -1 -27
3 -27 14 0 13 -1 13 -10 0 -8 -12 -10 -11 -10 7 0 12 -5 25 -12 29 -7 4 -8 3
-4 -4 5 -8 2 -10 -9 -6 -13 5 -13 9 -3 22 10 12 10 14 1 8 -8 -4 -13 -2 -13 4
0 6 -4 8 -10 5 -5 -3 -10 2 -11 12 0 16 -1 16 -8 -2 -8 -19 -8 -19 -19 0 -10
18 -11 18 -12 3 0 -10 -4 -18 -10 -18 -5 0 -7 7 -4 15 4 10 0 15 -12 15 -12 0
-15 3 -8 8 9 5 8 11 -2 20 -8 7 -14 9 -14 4 0 -5 -7 -9 -15 -9 -8 0 -15 5 -15
11 0 6 -5 4 -10 -4 -8 -13 -10 -12 -10 4 0 12 -5 16 -16 12 -8 -3 -13 -2 -10
2 2 4 1 14 -5 22 -7 13 -9 13 -9 0 0 -13 -1 -13 -10 0 -8 13 -10 13 -10 1 0
-11 -4 -9 -15 5 -15 19 -15 19 -8 -1 6 -17 5 -18 -9 -5 -8 8 -13 23 -10 35 5
18 4 19 -13 5 -11 -9 -16 -10 -11 -2 4 6 2 12 -3 12 -6 0 -11 10 -11 23 0 18
-2 19 -10 7 -8 -13 -10 -12 -10 4 0 17 -1 17 -25 2 -21 -14 -24 -14 -19 -1 5
11 2 13 -12 8 -12 -4 -15 -3 -10 5 4 7 2 12 -4 12 -6 0 -8 5 -5 10 4 6 -8 10
-30 10 -25 0 -38 5 -42 18 -4 9 -13 23 -20 30 -11 11 -13 11 -13 -4 0 -13 -3
-14 -15 -4 -12 10 -15 10 -16 -1 0 -8 -4 -4 -9 9 -5 12 -15 22 -22 22 -9 0 -9
-3 2 -10 9 -6 10 -10 3 -10 -21 0 -24 18 -6 30 15 10 14 10 -8 6 -22 -5 -26
-2 -25 17 1 17 -4 21 -21 19 -13 -2 -23 2 -23 7 0 6 -5 11 -11 11 -5 0 -8 -4
-5 -8 3 -5 -1 -9 -9 -9 -8 0 -15 7 -15 14 0 9 -5 11 -12 7 -8 -5 -7 0 2 11 9
11 10 16 3 11 -7 -4 -13 -3 -13 3 0 10 -25 9 -36 -2 -14 -13 -24 -7 -24 14 0
14 -5 19 -15 16 -8 -4 -17 -1 -21 5 -4 7 -3 8 4 4 7 -4 12 -2 12 3 0 14 -50
10 -51 -4 0 -5 -5 1 -11 15 -6 14 -11 28 -10 31 0 3 -19 5 -44 5 -36 -1 -44 2
-44 17 0 11 -5 15 -11 11 -8 -4 -9 1 -4 17 3 13 3 19 -2 12 -13 -18 -69 -21
-58 -3 3 6 4 10 0 10 -3 0 -10 -10 -15 -22 -7 -20 -9 -20 -9 -4 -1 15 -4 16
-15 7 -11 -9 -16 -9 -22 0 -4 8 -3 9 4 5 7 -4 12 -3 12 2 0 16 -65 40 -82 31
-11 -6 -21 -4 -32 7 -9 8 -16 11 -16 6 0 -18 -28 -21 -47 -6 -10 9 -11 12 -3
8 9 -4 7 2 -5 13 -11 11 -23 19 -27 16 -5 -2 -8 0 -8 4 0 5 -9 9 -20 9 -14 0
-19 -5 -15 -16 3 -9 -1 -8 -10 4 -8 11 -15 14 -15 8 0 -7 -5 -12 -11 -12 -5 0
-8 4 -5 8 2 4 -4 8 -14 8 -14 0 -16 -3 -8 -13 8 -10 7 -12 -6 -7 -9 3 -16 11
-16 18 0 6 -5 4 -10 -4 -9 -13 -10 -13 -10 0 -1 11 -3 11 -11 -3 -10 -17 -12
-17 -29 -2 -12 11 -20 13 -25 5 -5 -8 -11 -7 -23 2 -13 11 -15 11 -10 -3 5
-13 2 -16 -13 -12 -10 3 -17 9 -14 13 3 5 -3 7 -12 5 -10 -2 -22 -4 -26 -4 -5
-1 -5 -7 -1 -13 5 -9 2 -9 -9 1 -9 7 -17 10 -17 6 0 -4 -6 -2 -14 4 -10 9 -16
9 -21 1 -5 -7 -11 -8 -19 -1 -8 7 -13 4 -15 -12z m-167 -73 c3 -8 2 -12 -4 -9
-6 3 -10 10 -10 16 0 14 7 11 14 -7z m991 -74 c3 -5 1 -10 -4 -10 -6 0 -11 5
-11 10 0 6 2 10 4 10 3 0 8 -4 11 -10z m-1965 -1024 c0 -2 -7 -7 -16 -10 -8
-3 -12 -2 -9 4 6 10 25 14 25 6z m3914 -74 c2 -4 -5 -9 -17 -9 -17 -2 -19 0
-7 7 18 12 18 12 24 2z m-3837 -587 c0 -8 -4 -12 -9 -9 -5 3 -6 10 -3 15 9 13
12 11 12 -6z m4912 -48 c0 -9 -2 -8 -6 1 -2 6 -10 9 -15 6 -7 -4 -8 -2 -4 5 9
13 26 5 25 -12z m-4612 -452 c0 -8 -4 -12 -9 -9 -5 3 -6 10 -3 15 9 13 12 11
12 -6z m5516 -59 c4 -10 1 -13 -8 -9 -8 3 -12 9 -9 14 7 12 11 11 17 -5z m347
-226 c6 -11 8 -20 6 -20 -3 0 -10 9 -16 20 -6 11 -8 20 -6 20 3 0 10 -9 16
-20z m-5400 -34 c0 -3 -4 -8 -10 -11 -5 -3 -10 -1 -10 4 0 6 5 11 10 11 6 0
10 -2 10 -4z m355 -205 c-6 -5 -25 10 -25 20 0 5 6 4 14 -3 8 -7 12 -15 11
-17z m680 -390 c-6 -5 -25 10 -25 20 0 5 6 4 14 -3 8 -7 12 -15 11 -17z m305
-193 c0 -4 -4 -8 -9 -8 -6 0 -12 4 -15 8 -3 5 1 9 9 9 8 0 15 -4 15 -9z m-310
-1544 c0 -8 -19 -13 -24 -6 -3 5 1 9 9 9 8 0 15 -2 15 -3z m-466 -257 c-2 -7
-15 -13 -27 -14 -21 -2 -21 -1 3 12 31 18 30 18 24 2z m-469 -277 c3 -5 1 -10
-4 -10 -6 0 -11 5 -11 10 0 6 2 10 4 10 3 0 8 -4 11 -10z m-585 -380 c0 -5 -5
-10 -11 -10 -5 0 -7 5 -4 10 3 6 8 10 11 10 2 0 4 -4 4 -10z m3855 -879 c3 -5
2 -12 -3 -15 -5 -3 -9 1 -9 9 0 17 3 19 12 6z m-264 -164 c-10 -9 -11 -8 -5 6
3 10 9 15 12 12 3 -3 0 -11 -7 -18z m-1106 -647 c-10 -11 -23 -20 -28 -20 -6
0 1 10 14 23 29 28 40 25 14 -3z m-2304 -384 c5 3 9 -2 9 -12 0 -13 -3 -14
-15 -4 -8 7 -15 18 -14 24 0 7 2 6 6 -2 2 -6 9 -10 14 -6z"/>
<path d="M13460 14886 c0 -3 9 -10 20 -16 11 -6 20 -8 20 -6 0 3 -9 10 -20 16
-11 6 -20 8 -20 6z"/>
<path d="M12595 14830 c4 -6 11 -8 16 -5 14 9 11 15 -7 15 -8 0 -12 -5 -9 -10z"/>
<path d="M7966 14813 c-6 -14 -5 -15 5 -6 7 7 10 15 7 18 -3 3 -9 -2 -12 -12z"/>
<path d="M7675 14660 c-3 -5 -1 -10 4 -10 6 0 11 5 11 10 0 6 -2 10 -4 10 -3
0 -8 -4 -11 -10z"/>
<path d="M9585 14520 c3 -5 8 -10 11 -10 2 0 4 5 4 10 0 6 -5 10 -11 10 -5 0
-7 -4 -4 -10z"/>
<path d="M9616 14493 c-6 -14 -5 -15 5 -6 7 7 10 15 7 18 -3 3 -9 -2 -12 -12z"/>
<path d="M6284 13862 c3 -5 0 -13 -6 -15 -9 -4 -10 -6 -1 -6 17 -1 25 16 12
25 -7 4 -9 3 -5 -4z"/>
<path d="M5960 13686 c0 -2 8 -10 18 -17 15 -13 16 -12 3 4 -13 16 -21 21 -21
13z"/>
<path d="M5086 13162 c-3 -5 1 -9 9 -9 8 0 12 4 9 9 -3 4 -7 8 -9 8 -2 0 -6
-4 -9 -8z"/>
<path d="M16548 13143 c7 -3 16 -2 19 1 4 3 -2 6 -13 5 -11 0 -14 -3 -6 -6z"/>
<path d="M4135 12620 c4 -6 11 -8 16 -5 14 9 11 15 -7 15 -8 0 -12 -5 -9 -10z"/>
<path d="M17470 12606 c0 -2 7 -7 16 -10 8 -3 12 -2 9 4 -6 10 -25 14 -25 6z"/>
<path d="M9534 12579 c-19 -22 -19 -22 4 -8 12 8 22 17 22 21 0 12 -6 9 -26
-13z"/>
<path d="M8744 12088 c-10 -12 -14 -18 -7 -15 6 4 13 1 15 -5 3 -7 7 -1 10 15
6 33 6 33 -18 5z"/>
<path d="M3075 11990 c-3 -5 -2 -10 4 -10 5 0 13 5 16 10 3 6 2 10 -4 10 -5 0
-13 -4 -16 -10z"/>
<path d="M18636 11941 c-3 -4 3 -16 14 -26 18 -16 20 -16 20 -2 0 10 -6 16
-12 15 -7 -2 -12 3 -10 10 2 14 -4 16 -12 3z"/>
<path d="M13456 11727 c3 -10 9 -15 12 -12 3 3 0 11 -7 18 -10 9 -11 8 -5 -6z"/>
<path d="M8065 11690 c-3 -6 1 -7 9 -4 18 7 21 14 7 14 -6 0 -13 -4 -16 -10z"/>
<path d="M7535 11389 c-4 -6 -5 -12 -2 -15 2 -3 7 2 10 11 7 17 1 20 -8 4z"/>
<path d="M6890 10999 c0 -5 5 -7 10 -4 6 3 10 8 10 11 0 2 -4 4 -10 4 -5 0
-10 -5 -10 -11z"/>
<path d="M15006 10779 c2 -4 -2 -10 -8 -12 -8 -4 -9 -6 -2 -6 6 -1 17 5 23 12
8 10 7 14 -4 14 -8 0 -12 -4 -9 -8z"/>
<path d="M14353 10393 c4 -3 -1 -16 -10 -27 -18 -21 -18 -21 4 -2 20 16 23 36
6 36 -4 0 -3 -3 0 -7z"/>
<path d="M2493 10317 c0 -8 6 -14 14 -14 9 0 10 4 2 14 -6 7 -12 13 -14 13 -1
0 -2 -6 -2 -13z"/>
<path d="M7430 10321 c0 -6 4 -13 10 -16 6 -3 7 1 4 9 -7 18 -14 21 -14 7z"/>
<path d="M14056 10213 c-6 -14 -5 -15 5 -6 7 7 10 15 7 18 -3 3 -9 -2 -12 -12z"/>
<path d="M14010 10179 c0 -5 5 -7 10 -4 6 3 10 8 10 11 0 2 -4 4 -10 4 -5 0
-10 -5 -10 -11z"/>
<path d="M19090 10179 c0 -5 5 -7 10 -4 6 3 10 8 10 11 0 2 -4 4 -10 4 -5 0
-10 -5 -10 -11z"/>
<path d="M2795 9830 c3 -5 8 -10 11 -10 2 0 4 5 4 10 0 6 -5 10 -11 10 -5 0
-7 -4 -4 -10z"/>
<path d="M13046 9628 c3 -5 10 -6 15 -3 13 9 11 12 -6 12 -8 0 -12 -4 -9 -9z"/>
<path d="M12838 9517 c-5 -27 -5 -27 13 -11 20 18 25 29 10 20 -5 -4 -11 0
-13 6 -3 7 -7 0 -10 -15z"/>
<path d="M3923 9145 c0 -8 4 -12 9 -9 5 3 6 10 3 15 -9 13 -12 11 -12 -6z"/>
<path d="M15731 7987 c-13 -21 -12 -21 5 -5 10 10 16 20 13 22 -3 3 -11 -5
-18 -17z"/>
<path d="M11675 7910 c-3 -5 -2 -10 4 -10 5 0 13 5 16 10 3 6 2 10 -4 10 -5 0
-13 -4 -16 -10z"/>
<path d="M6070 7896 c0 -2 7 -7 16 -10 8 -3 12 -2 9 4 -6 10 -25 14 -25 6z"/>
<path d="M15316 7748 c3 -5 10 -6 15 -3 13 9 11 12 -6 12 -8 0 -12 -4 -9 -9z"/>
<path d="M11800 7480 c0 -5 5 -10 11 -10 5 0 7 5 4 10 -3 6 -8 10 -11 10 -2 0
-4 -4 -4 -10z"/>
<path d="M7580 7041 c0 -5 7 -12 16 -15 14 -5 15 -4 4 9 -14 17 -20 19 -20 6z"/>
<path d="M9090 6819 c0 -5 5 -7 10 -4 6 3 10 8 10 11 0 2 -4 4 -10 4 -5 0 -10
-5 -10 -11z"/>
<path d="M8815 6731 c-3 -5 -1 -12 5 -16 5 -3 10 1 10 9 0 18 -6 21 -15 7z"/>
<path d="M8335 6720 c3 -5 8 -10 11 -10 2 0 4 5 4 10 0 6 -5 10 -11 10 -5 0
-7 -4 -4 -10z"/>
<path d="M8495 6720 c3 -5 8 -10 11 -10 2 0 4 5 4 10 0 6 -5 10 -11 10 -5 0
-7 -4 -4 -10z"/>
<path d="M8655 6720 c3 -5 8 -10 11 -10 2 0 4 5 4 10 0 6 -5 10 -11 10 -5 0
-7 -4 -4 -10z"/>
<path d="M13030 6669 c0 -5 5 -7 10 -4 6 3 10 8 10 11 0 2 -4 4 -10 4 -5 0
-10 -5 -10 -11z"/>
</g>
</svg>
